<?xml version="1.0" encoding="utf-8"?>
<!-- Generator: Adobe Illustrator 27.1.1, SVG Export Plug-In . SVG Version: 6.00 Build 0)  -->
<svg version="1.1" id="レイヤー_1" xmlns="http://www.w3.org/2000/svg" xmlns:xlink="http://www.w3.org/1999/xlink" x="0px"
	 y="0px" viewBox="0 0 70.27 28.9" style="enable-background:new 0 0 70.27 28.9;" xml:space="preserve">
<style type="text/css">
	.st0{fill:#87003A;}
	.st1{fill:#E50067;}
	.st2{fill:#FFFFFF;}
</style>
<rect x="1.8" y="3.48" transform="matrix(0.999 -0.0445 0.0445 0.999 -0.6445 1.5209)" class="st0" width="64.1" height="23.51"/>
<rect x="3.21" y="1.9" transform="matrix(0.999 -0.0445 0.0445 0.999 -0.5727 1.5825)" class="st1" width="64.1" height="23.51"/>
<g>
	<path class="st2" d="M14.93,6.67c0.47-0.03,0.88-0.02,1.22,0.02c0.35,0.04,0.67,0.1,0.98,0.19c0.01,0.22,0.03,0.46,0.05,0.7
		c0.02,0.25,0.04,0.51,0.05,0.8c0.02,0.29,0.03,0.59,0.04,0.91c0.01,0.32,0.02,0.61,0.04,0.89c-0.51-0.28-1.11-0.41-1.8-0.37
		c-0.65,0.04-1.19,0.19-1.61,0.45c-0.42,0.27-0.76,0.59-1,0.99c-0.25,0.39-0.41,0.82-0.5,1.27c-0.09,0.45-0.12,0.88-0.09,1.29
		c0.03,0.55,0.14,1.05,0.34,1.53c0.2,0.47,0.46,0.88,0.78,1.22c0.33,0.34,0.7,0.6,1.12,0.79c0.42,0.18,0.87,0.26,1.35,0.24
		c0.22-0.01,0.5-0.06,0.84-0.15c0.34-0.09,0.66-0.23,0.94-0.43c0.03,0.46,0.06,0.93,0.09,1.42c0.03,0.49,0.06,0.98,0.09,1.44
		c0.03,0.49,0.05,0.98,0.07,1.44c0.02,0.47,0.04,0.94,0.07,1.4c-0.72,0.2-1.46,0.32-2.21,0.36c-1.14,0.06-2.18-0.07-3.1-0.39
		c-0.93-0.33-1.72-0.83-2.39-1.5c-0.67-0.67-1.2-1.5-1.59-2.49c-0.39-0.99-0.62-2.11-0.69-3.36c-0.07-1.2,0.03-2.31,0.28-3.33
		C8.58,10.98,9,10.08,9.57,9.31c0.58-0.77,1.31-1.38,2.2-1.85C12.67,7.01,13.72,6.74,14.93,6.67z"/>
	<path class="st2" d="M27.33,6.21c0.01,0.82,0.02,1.6,0.04,2.33c0.02,0.73,0.05,1.45,0.07,2.16c0.03,0.71,0.06,1.43,0.09,2.15
		c0.03,0.72,0.07,1.49,0.12,2.31c0.05,0.96,0.12,2.01,0.19,3.14c0.07,1.13,0.15,2.42,0.25,3.88l-3.24,0.18
		c-0.02-0.78-0.04-1.6-0.08-2.45c-0.04-0.85-0.08-1.83-0.13-2.92l-2.89,0.16c0.04,0.77,0.09,1.59,0.15,2.47
		c0.06,0.88,0.12,1.84,0.19,2.9l-3.24,0.18c-0.02-0.57-0.04-1.16-0.06-1.76c-0.02-0.6-0.04-1.24-0.07-1.93s-0.06-1.44-0.11-2.26
		c-0.05-0.82-0.1-1.73-0.15-2.73c-0.05-0.88-0.09-1.65-0.13-2.29c-0.04-0.64-0.07-1.23-0.11-1.77s-0.07-1.05-0.1-1.55
		c-0.03-0.5-0.06-1.06-0.09-1.67l3.3-0.19c0.01,1.08,0.03,2.08,0.05,3c0.03,0.92,0.06,1.85,0.1,2.78l2.89-0.16
		c-0.03-0.6-0.06-1.14-0.09-1.63c-0.03-0.49-0.06-0.96-0.09-1.4c-0.03-0.45-0.06-0.89-0.08-1.33c-0.02-0.44-0.05-0.91-0.08-1.41
		L27.33,6.21z"/>
	<path class="st2" d="M36.45,21.76c-0.36,0.01-0.85,0.02-1.45,0.05c-0.6,0.03-1.24,0.06-1.92,0.09c-0.68,0.03-1.37,0.07-2.05,0.11
		c-0.68,0.04-1.28,0.07-1.8,0.1c0-0.27-0.01-0.64-0.03-1.09c-0.02-0.46-0.05-0.98-0.08-1.56c-0.03-0.59-0.07-1.22-0.11-1.9
		c-0.04-0.68-0.08-1.39-0.12-2.12c-0.06-0.99-0.11-1.98-0.18-2.96c-0.06-0.99-0.12-1.91-0.17-2.76c-0.05-0.85-0.09-1.59-0.13-2.21
		c-0.04-0.62-0.07-1.07-0.08-1.33c0.51-0.03,1.07-0.06,1.68-0.09S31.24,6,31.87,5.96s1.26-0.09,1.87-0.13
		c0.61-0.05,1.18-0.09,1.71-0.14c0.01,0.17,0.02,0.32,0.03,0.44c0.01,0.12,0.03,0.29,0.04,0.52c0.01,0.16,0.02,0.34,0.02,0.56
		c0.01,0.21,0.01,0.44,0.02,0.66c0.01,0.23,0.01,0.46,0.02,0.68c0.01,0.23,0.01,0.44,0.01,0.64L31.68,9.4l0.13,2.26l3.41-0.19
		l0.16,2.91l-3.41,0.19l0.12,2.18l3.98-0.22c0.03,0.3,0.06,0.6,0.09,0.91c0.03,0.31,0.06,0.66,0.09,1.05
		c0.03,0.39,0.06,0.85,0.09,1.37C36.37,20.4,36.4,21.03,36.45,21.76z"/>
	<path class="st2" d="M43.41,5.06c0.47-0.03,0.88-0.02,1.22,0.02c0.35,0.04,0.67,0.1,0.98,0.19c0.01,0.22,0.03,0.46,0.05,0.7
		c0.02,0.25,0.04,0.51,0.05,0.8c0.02,0.29,0.03,0.59,0.04,0.91C45.77,8,45.78,8.3,45.8,8.57c-0.51-0.28-1.11-0.41-1.8-0.37
		c-0.65,0.04-1.19,0.19-1.61,0.45c-0.42,0.27-0.76,0.59-1,0.99c-0.24,0.39-0.41,0.82-0.5,1.27c-0.09,0.45-0.12,0.88-0.09,1.29
		c0.03,0.55,0.14,1.05,0.34,1.53c0.2,0.47,0.46,0.88,0.78,1.22c0.33,0.34,0.7,0.6,1.12,0.79c0.42,0.18,0.87,0.26,1.35,0.24
		c0.22-0.01,0.5-0.06,0.84-0.15c0.34-0.09,0.66-0.23,0.94-0.43c0.03,0.46,0.06,0.93,0.09,1.42c0.03,0.49,0.06,0.98,0.09,1.44
		c0.03,0.49,0.05,0.98,0.07,1.44c0.02,0.47,0.04,0.94,0.07,1.4c-0.72,0.2-1.46,0.32-2.21,0.36c-1.14,0.06-2.18-0.07-3.1-0.39
		c-0.93-0.33-1.72-0.83-2.39-1.5c-0.67-0.67-1.2-1.5-1.59-2.49c-0.39-0.99-0.62-2.11-0.69-3.36c-0.07-1.2,0.03-2.31,0.28-3.33
		c0.25-1.03,0.67-1.92,1.25-2.69c0.58-0.77,1.31-1.38,2.2-1.85C41.15,5.4,42.2,5.13,43.41,5.06z"/>
	<path class="st2" d="M50.01,4.93c0,0.78,0.01,1.47,0.03,2.07c0.01,0.6,0.03,1.17,0.05,1.72c0.02,0.55,0.04,1.11,0.07,1.69
		c0.03,0.58,0.06,1.24,0.1,1.98l0.08,0l3.05-7.66l3.63-0.2l-3.38,8l4.52,7.96l-3.65,0.21l-4.12-7.52l-0.08,0
		c0.03,0.48,0.06,1.03,0.09,1.64c0.03,0.61,0.07,1.25,0.12,1.92c0.04,0.67,0.09,1.36,0.14,2.07c0.05,0.71,0.09,1.41,0.13,2.1
		l-3.43,0.19c-0.02-0.57-0.04-1.17-0.06-1.79c-0.02-0.62-0.05-1.29-0.07-2.01c-0.03-0.72-0.07-1.5-0.11-2.34
		c-0.05-0.84-0.1-1.76-0.16-2.78c-0.05-0.88-0.09-1.64-0.13-2.25c-0.03-0.62-0.07-1.18-0.1-1.69c-0.04-0.51-0.07-1-0.09-1.47
		c-0.03-0.47-0.06-1.02-0.09-1.63L50.01,4.93z"/>
	<path class="st2" d="M59.81,16.39c0.33-0.02,0.62,0.03,0.88,0.15c0.26,0.12,0.48,0.27,0.67,0.46c0.19,0.19,0.33,0.41,0.44,0.64
		s0.16,0.46,0.17,0.69c0.02,0.29-0.02,0.56-0.12,0.83c-0.1,0.27-0.23,0.5-0.41,0.71c-0.18,0.2-0.39,0.37-0.64,0.51
		c-0.25,0.13-0.51,0.2-0.78,0.22c-0.35,0.02-0.66-0.02-0.93-0.11c-0.27-0.1-0.49-0.23-0.67-0.41s-0.32-0.38-0.42-0.61
		c-0.1-0.23-0.15-0.47-0.17-0.71c-0.01-0.26,0.02-0.53,0.09-0.8c0.08-0.27,0.2-0.52,0.36-0.74c0.16-0.22,0.37-0.41,0.62-0.55
		C59.18,16.49,59.48,16.4,59.81,16.39z M61.45,4.16l-0.38,10.21l-2.36,0.13L58.12,4.02L61.45,4.16z"/>
</g>
</svg>
