<?xml version="1.0" encoding="utf-8"?>
<!-- Generator: Adobe Illustrator 25.4.1, SVG Export Plug-In . SVG Version: 6.00 Build 0)  -->
<svg version="1.1" id="レイヤー_1" xmlns="http://www.w3.org/2000/svg" xmlns:xlink="http://www.w3.org/1999/xlink" x="0px"
	 y="0px" viewBox="0 0 103.2 109.3" style="enable-background:new 0 0 103.2 109.3;" xml:space="preserve">
<style type="text/css">
	.st0{fill:#D51151;}
</style>
<g>
	<path class="st0" d="M51.6,56.6c15.6,0,28.3-12.7,28.3-28.3C79.9,12.7,67.2,0,51.6,0C36,0,23.3,12.7,23.3,28.3
		C23.3,43.9,36,56.6,51.6,56.6z"/>
	<path class="st0" d="M87.8,83.9c-1.3-7.6-7.7-18-12.3-22.9c-1.2-1.3-3.4-0.8-4.2-0.3c-5.8,3.6-12.5,5.6-19.8,5.6
		c-7.3,0-14-2.1-19.8-5.6c-0.8-0.5-2.9-1-4.2,0.3c-4.6,4.9-11,15.4-12.3,22.9c-3.1,18.6,16.8,25.4,36.3,25.4S90.9,102.5,87.8,83.9z"
		/>
</g>
</svg>
