<?xml version="1.0" encoding="utf-8"?>
<!-- Generator: Adobe Illustrator 25.4.1, SVG Export Plug-In . SVG Version: 6.00 Build 0)  -->
<svg version="1.1" id="レイヤー_1" xmlns="http://www.w3.org/2000/svg" xmlns:xlink="http://www.w3.org/1999/xlink" x="0px"
	 y="0px" viewBox="0 0 103.2 109.3" style="enable-background:new 0 0 103.2 109.3;" xml:space="preserve">
<style type="text/css">
	.st0{fill:#D51151;}
</style>
<g>
	<path class="st0" d="M94.7,36H81.2v-6.4c0-0.7,0-1.5-0.1-2.2h0.1C80.1,12.1,67.2,0,51.6,0c0,0,0,0,0,0c0,0,0,0,0,0
		C35.9,0,23.1,12.1,22,27.4h0.1C22,28.2,22,28.9,22,29.6V36H8.5C3.6,36-0.2,40.1,0,45l3.1,56.3c0.2,4.5,3.9,8,8.5,8h80.1
		c4.5,0,8.2-3.5,8.5-8l3.1-56.3C103.4,40.1,99.6,36,94.7,36z M56,72.9v12.3c0,2.1-1.7,3.8-3.8,3.8l0,0c-2.1,0-3.8-1.7-3.8-3.8V72.9
		c-2.5-1.4-4.2-4-4.2-7c0-4.4,3.6-8,8-8s8,3.6,8,8C60.2,69,58.5,71.6,56,72.9z M69.4,36H33.8v-6.4c0-9.8,8-17.8,17.8-17.8
		c9.8,0,17.8,8,17.8,17.8L69.4,36L69.4,36z"/>
</g>
</svg>
