<?xml version="1.0" encoding="UTF-8"?><svg xmlns="http://www.w3.org/2000/svg" viewBox="0 0 627.98 176.14"><defs><style>.d,.e{fill:#fff;}.e{stroke:#fff;stroke-linecap:round;stroke-linejoin:round;stroke-width:6px;}.f{fill:#5fb96b;}.g{fill:#f9d6d3;stroke-width:5px;}.g,.h{stroke:#e50153;stroke-miterlimit:10;}.i,.h{fill:#e50153;}.j{fill:none;}.h{stroke-width:9px;}.k{fill:#ffd916;}</style></defs><g id="a"/><g id="b"><g id="c"><g><circle class="k" cx="550.8" cy="95.74" r="77.18"/><g><path class="d" d="M619.53,120.85l-.04-.13c-.37-1.16-.97-3.01-1.73-5.27-3.98-12.01-6.31-17.99-6.93-19.54-.6-1.49-1.1-2.7-1.57-3.81-.3-.72-.58-1.39-.86-2.07-1.75-4.31-4.15-10.21-9.93-14.01-1.76-1.16-3.28-1.72-5.04-2.37-1.38-.51-3.1-1.14-5.59-2.31-.85-.4-1.66-.79-2.43-1.16,.26-.1,.51-.2,.76-.31,.74-.22,1.39-.44,1.95-.64,1.31-.47,8.08-3.12,12.14-9.16,7.22-10.76,1.31-25.09-2.6-34.57-3.92-9.5-7.62-18.47-17.38-23.02-3.54-1.65-7.41-2.48-11.5-2.48-3.31,0-6.68,.54-10.03,1.6-3.91,.82-11.03,3.18-16.72,9.96-2.34,2.79-7.98,9.28-6.96,16.99,.73,5.55,4.81,11.03,7.57,14.74,.62,.83,1.16,1.51,1.54,1.97,.03,.57,.1,1.37,.24,2.33,.26,1.87,.56,4.21,1.72,6.47,.86,1.68,1.88,2.71,3.59,4.52,1.63,1.72,3.16,2.99,4.33,3.88-1.41,1.34-3.04,2.74-4.9,4.14-1.48,1.11-2.91,2.07-4.27,2.9-1.28,.64-2.56,1.26-3.83,1.85-1.95,.92-3.64,1.52-5.14,2.05-1.83,.65-3.46,1.23-4.89,2.17-3.16,1.11-5.08,5.23-7.27,11.96-2.09,6.42-3.71,13.41-4.16,15.41-.5,2.23-.95,4.49-1.36,6.74-2.71-2.64-5.45-5.24-8.22-7.77-4.16-3.81-8.46-7.57-12.79-11.18l-.47-.39c-.23-1.3-.75-3.36-2.86-5.17-2.12-1.81-4.33-2.12-7.38-2.54-1.38-.19-2.4-.21-3.23-.23-.96-.02-1.53-.04-2.59-.3-.58-.14-1.06-.31-2.22-.71-.88-.3-1.54-.56-2.09-.78-1.33-.52-2.47-.97-4.22-1.11-.24-.02-.89-.08-1.63-.08-4.51,0-5.93,2.48-6.38,3.97-.03,.1-.06,.2-.08,.29l-.34-.14c-4.03-1.61-6.43-2.52-8.84-2.52-1.11,0-2.15,.2-3.2,.6-3.32,1.29-5.18,3.76-4.99,6.61,.28,4.13,3.97,5.18,6.41,5.87,.52,.15,1.09,.31,1.72,.51,1.88,.59,6.89,2.17,10.84,4.97,.8,.57,1.94,1.31,3.68,2.07,1.27,.55,2.87,.82,4.88,.82,.93,0,1.97-.06,2.95-.17,.27-.03,.55-.04,.85-.04,1.96,0,4.21,.69,5.6,1.71,.3,.22,.54,.45,.74,.68-1.28,2.94-2.54,5.92-3.76,8.88l-1.7,4.14,3.85,2.11c2.48,1.36,4.97,2.86,7.38,4.44,2.56,1.69,4,2.8,6.37,4.63,1.4,1.08,3.09,2.39,5.48,4.17,2.9,2.17,6.04,4.31,12.29,8.58,5.94,4.05,8.7,5.85,11.84,5.85,1.06,0,2.09-.23,3.06-.67,.36-.16,.68-.34,.98-.54-.6,5.85-1.74,11.76-3.41,17.64l-1.77,6.23,39.76,.4,43.49,.43-4.58-7.6c-1.29-2.15-2.56-4.36-3.75-6.57-1.87-3.47-3.21-5.96-4.24-8.26,1.48-.71,2.86-1.38,4.11-1.99,4.66-2.27,7.19-3.54,10.28-5.47,3.49-2.17,6.83-4.64,9.95-7.32l2.35-2.02-2.86-10.85Z"/><g><path class="i" d="M487.46,101.92s-.05-.08-.08-.12c-1.99-3.88-6.49-6.13-10.66-6.61-2.66-.42-5.48,.39-8.06-.03-2.59-.56-4.51-2.51-6.89-3.62-3.67-1.92-7.59-3.21-11.57-4.26-.94-.24-2.18-.55-2.84-.92,1.63-2.02,4.43-1.37,6.66-.6,2.29,.74,4.57,1.58,6.86,2.4-.68-.33-1.35-.69-1.99-1.1,.48,.09,.96,.19,1.44,.28-3.3-1.39-6.45-3.13-10.11-3.5-1.54,.08-3.32,.61-4.1,2.09-.49,2,2.4,2.23,3.69,2.73,3.83,1.12,7.63,2.52,11.13,4.42,2.45,1.23,4.61,3.38,7.38,3.94,2.14,.4,4.19,.04,6.24-.02,4.43,.08,8.97,1.82,11.14,5.86,.23,.45,.5,.81,.8,1.11,.03-.06,.06-.13,.09-.19,.29-.63,.57-1.24,.86-1.86Z"/><path class="i" d="M473.26,88.28c-2.82-.74-5.65-2.02-7.68-4.14-.16-.21-.51-.63-.35-.73,2.41-.62,4.67,.37,6.95,1.29,2.55,.96,5.32,1.91,8.07,1.85,2.29,.22,5.48,.26,7.3,1.61,1.04,.86,.88,1.91,1.21,3.22,.23,1.38,1.06,2.55,1.96,3.65,.28-.59,.57-1.19,.85-1.78-.92-1.29-1.22-2.62-1.56-4.31-.44-1.62-1.99-2.74-3.51-3.1-3.31-.91-6.8-.44-10.12-1.08-3.73-.74-7.74-3.46-11.59-1.99-1.43,1.27,1.85,3.13,2.8,3.69,1.62,.91,3.37,1.54,5.18,1.91,.16-.02,.32-.05,.49-.07Z"/><path class="i" d="M554.25,84.05s0,.06,0,.08c0,.24-.01,.48-.02,.72,3.56,1.16,7.6,1.41,11.38,.77,.07-.17,.15-.33,.22-.5-3.88,.6-8.02,.25-11.58-1.07Z"/><path class="i" d="M543.4,45.05c-.26-.82-.58-2.04-.78-3.52-.3-2.18-.32-4.93,.54-7.87,.07-.23,.49-1.63,1.23-3.2,2.93-.78,6.11-.6,8.93,.53-1.98-2.1-5.61-2.52-8.47-1.45,.48-.89,1.05-1.78,1.7-2.48,.19-.2,1.41-1.5,2.7-3.04,1.48-1.77,1.62-2.1,3.63-4.6,2.18-2.71,4.03-4.83,5.24-6.19,1.19,1.45,3.08,3.63,5.63,6.04,6.63,6.28,9.25,5.98,11.87,10.16,1.39,2.21,1.96,4.43,2.28,7.36,.91-1.1,2.26-2.17,3.56-1.81,1.98,.54,2.82,4.11,2.53,6.65-.45,3.8-3.69,7.26-5.59,6.65-.08-.02-.15-.07-.22-.11-.21,1.65-.56,2.63-.81,3.26-1.03,2.54-2.63,4.44-3.78,5.81h0c-.61,.73-1.38,1.34-2.3,1.85-.68,.38-1.44,.71-2.31,.96,.52,.61,1.29,1.41,2.31,2.17,.97,.72,2.16,1.4,3.6,1.86,1.91,.61,3.71,.64,5.39,.39,7.57-3.79,10.1-8.75,10.95-10.77,3.17-7.6,.13-15.68-3.32-24.84-1.81-4.81-3.79-8.58-5.23-11.06,4.99,7.1,7.72,13.59,9.25,18.1,2.22,6.51,4,11.99,1.71,17.7-1.11,2.77-2.88,4.81-4.02,5.93-2.91,2.87-6.13,4.15-8.22,4.73,1.65-.37,3.16-.98,4.5-1.51,1.44-.57,7.04-2.79,10.26-7.44,6-8.68,.67-21.23-3.22-30.38-3.94-9.28-7.23-17-15.69-20.82-8.07-3.64-16.13-1.6-19.31-.6-2.37,.45-9.44,2.13-14.99,8.55-1.25,1.45-5.49,6.51-6.09,14.28-.8,10.28,5.36,17.4,6.56,18.74h0Z"/><path class="i" d="M567.48,37.72c-.6,.56-.98,1.36-.98,2.24,0,1.7,1.38,3.08,3.08,3.08s3.08-1.38,3.08-3.08c0-.76-.28-1.44-.74-1.98,1.32,.4,2.56,1.08,3.6,2.06l.14-.14c-1.6-5.49-10.45-5.8-12.58-.55l.12,.16c1.27-.95,2.75-1.54,4.27-1.79Zm.64,.7c.42,0,.77,.34,.77,.77s-.34,.77-.77,.77-.77-.34-.77-.77,.34-.77,.77-.77Z"/><path class="i" d="M552.9,39.49l.14-.15c-.24-1.18-1-2.12-1.98-2.75-2.92-2.08-7.92-.43-8.37,3.32l.15,.13c.93-1.03,2.12-1.73,3.4-2.08-.46,.54-.75,1.23-.75,2,0,1.7,1.38,3.08,3.08,3.08s3.08-1.38,3.08-3.08c0-.59-.18-1.14-.47-1.61,.61,.29,1.19,.66,1.72,1.14Zm-6.56-.05c0-.42,.34-.77,.77-.77s.77,.34,.77,.77-.34,.77-.77,.77-.77-.34-.77-.77Z"/><path class="i" d="M575.84,31.13l.04-.09c-3.49-2.91-9.25-2.74-12.64,.27l.04,.09c3.92-1.79,8.58-1.96,12.56-.27Z"/><path class="i" d="M563.26,55.19c-1.04-.19-2.61-.29-4.31,.31-.35,.12-.66,.26-.95,.41-.28-.13-.57-.25-.88-.36-1.63-.59-3.16-.71-4.38-.68,.61,.54,2.59,2.18,5.47,2.16,2.57-.01,4.38-1.32,5.04-1.85Z"/><path class="i" d="M460.89,88.16c1.38,.67,2.83,1.2,4.31,1.58,2.23,.63,4.6,.91,6.94,.71,2.37-.33,4.29-.95,6.61-1.21,2.16-.32,4.36-.51,5.96,1.28-1.82-4.03-7.55-2.84-11.45-2.24-.16,.03-.33,.05-.49,.07-.29,.04-.57,.08-.84,.11-3.84,.32-7.75-.36-11.6-1.11-.48-.09-.96-.19-1.44-.28,.64,.41,1.31,.77,1.99,1.1Z"/><path class="i" d="M553.09,65.32c-1.66,2.87-5.5,3.36-7.11,6.25-2.6,4.21-5.22,8.51-7.86,12.71l8.37,1.98,1.73,.41-1.23,1.34-5.45,5.94c4.29,8.29,7.51,17.12,9.61,26.22,.08-5.77,.22-11.54,.47-17.31,.56-12.56,2.26-24.95,1.47-37.54h0Z"/><path class="i" d="M572.12,65.32c-.15,2.89-.09,5.74-.18,8.57-2.09,4.77-3.95,9.63-5.71,14.51-4.58,12.76-8.04,25.91-10.33,39.27,7.81-10.12,16.12-20.7,23.92-30.52-1.38-2.18-4.73-7.44-5.26-8.28,3.58-.38,7.19-.76,10.77-1.11-.98-2.54-1.98-5.08-2.93-7.64l-3.32-8.81c-.17-.18-.96-1.29-1.47-1.62-1.84-1.42-4.26-2.26-5.49-4.39h0Z"/><path class="i" d="M607.97,136.23c4.3-2.6,7.61-5.15,9.83-7.01-.71-2.6-1.41-5.21-2.12-7.81h0c-.38-1.17-.98-3.04-1.73-5.33-3.93-11.96-6.24-17.96-6.89-19.6-.99-2.49-1.73-4.19-2.44-5.95-1.84-4.56-3.76-9.05-8.17-11.97-2.51-1.66-4.42-1.72-10.14-4.43-2.63-1.25-4.9-2.36-6.69-3.3,.04,.05,.08,.09,.11,.14,2.29,5.1,5.55,12.17,7.74,17.23l.48,1.09-1.22,.18c-2.77,.41-5.54,.8-8.31,1.18l4.01,5.87,.51,.74c-4.77,6.27-9.5,12.57-14.33,18.8-4.13,5.38-9.96,12.89-14.68,18.94,0,1.56,.02,3.14,.02,4.69-.99,.2-1.97,.42-2.95,.68-.87-15.97-4.95-31.73-11.98-46.09l-.38-.78,.58-.59,5-5.11c-2.99-.85-8.78-2.47-8.81-2.48l.66-.96c2.37-3.45,4.83-6.9,7.27-10.34-.09,.04-.17,.08-.25,.12-5,2.37-8.4,2.83-10.14,4.43l-.05,.04c-.07,.06-.12,.14-.19,.21-.15-.15-.31-.23-.46-.25-2.71-.36-7.25,15.99-9.17,24.28-1.55,6.68-2.36,12.29-2.81,16.09-4.77-4.75-9.91-9.61-15.44-14.52-4.49-3.99-8.92-7.73-13.24-11.23l-.03,.06c-.28,.58-.57,1.19-.85,1.78-1.09,2.26-2.17,4.56-3.25,6.9-.29,.62-.58,1.23-.86,1.86-.03,.06-.06,.13-.09,.19-1.61,3.55-3.14,7.04-4.59,10.47,1.84,.98,4.7,2.56,8.09,4.73,4.46,2.85,5.83,4.15,12.68,9.12,2.95,2.14,6.21,4.29,12.72,8.61,6.7,4.44,8.89,5.73,10.85,4.86,.59-.26,.93-.62,4.47-7.14,2.31-4.25,2.56-4.83,2.83-5.59,.67-1.92,.97-3.72,1.08-5.26,.3,5.54,.95,8.36,.73,15.45-.2,6.22-1.05,15.16-4.08,25.9l4.72,.05v.41c5.23,.03,10.46,.02,15.69,0l-.17-12.38c-2.07,.15-4.42,.13-6.11-.67-.84-.59-1.97-1.06-2.95-1.43-.63-.28-1.37-.64-2.05-.8-.44-.09-1.17-.65-1.23-.89,0-.35,.67-.72,1.01-1.01,1.63-1.17,3.47-2.64,5.18-3.6,1.06-.36,2.94-.74,4.05-1.04,1.72-.27,3.5-.52,5.22-.83,.1-.01,.17-.03,.17-.03h0c-2.65,.03-5.76,1.01-8.11-.37,3.78-1.52,8.48-2.04,12.71-2.47,4.87-.47,9.79-1.07,14.56-2.22,.49,1.22,1.09,2.51,1.83,3.83,.46,.82,.93,1.59,1.41,2.31-2.75,.86-5.32,2.31-7.53,4.12-4.57,2.83-9.8,4.14-15.17,4.81l.18,12.67c2.37,0,4.74-.02,7.1-.02,0,0,5.19-.01,10.01-.03l28.39,.29c-.98-1.64-2.35-4-3.9-6.9-3.17-5.94-4.98-9.33-6.32-13.81,2.88-1.33,5.45-2.53,7.66-3.57,5.01-2.36,7.38-3.54,10.33-5.32Zm-19.02-9.22c.57-2.51,1.4-5.64,2.38-11.16,.23-1.28,.42-2.44,.57-3.43,.72,2.12,1.7,4.73,3.04,7.83,.74,1.69,1.39,3.08,1.85,4.03-2.51,.93-5.13,1.84-7.84,2.73Z"/><path class="i" d="M552.75,146.92h0c-3.56,.35-6.97,1.2-10.34,2.45h0c3.61,.11,7.15-.78,10.34-2.45h0Z"/><path class="i" d="M545.75,150.99h0c1.8,.75,3.88,.79,5.76,.2,.92-.29,1.79-.71,2.54-1.3-2.88,.5-5.39,.81-8.29,1.1h0Z"/></g></g><rect class="j" x="550.6" y="66.67" width="17.27" height="23.26"/><g><path class="f" d="M227.18,29.76c-.13,.26-.24,.47-.32,.62h5.12v1.91h-3.91v.77h3.39v2.98c0,.71-.13,1.17-.38,1.37-.26,.2-.79,.31-1.59,.31h-.74l-.56-1.72h.6c.29,0,.43-.13,.43-.4v-.72h-1.14v3.39h-2.22v-3.39h-1.07v2.87h-2.24v-2.77c-.41,.28-.81,.53-1.21,.75l-1.61-1.72c1.27-.59,2.26-1.17,2.96-1.73h-2.52v-1.91h4.21c.13-.22,.24-.42,.34-.6-.76,.18-1.65,.36-2.67,.52l-1.34-1.64c1.15-.11,2.15-.26,3-.44-.6-.16-1.23-.32-1.89-.47l1.62-1.3c1.06,.19,2.15,.45,3.28,.77,.44-.22,.96-.52,1.55-.91l2.38,.75c-.43,.36-.9,.68-1.39,.98,.68,.24,1.36,.49,2.02,.75l-1.95,1.5c-.51-.23-1.38-.6-2.6-1.09-.38,.13-.77,.25-1.17,.36l1.62,.19Zm-1.62,2.54c-.2,.24-.43,.5-.69,.77h.98v-.77h-.29Z"/><path class="f" d="M244.78,38.08h-11.47v-1.73h4.52v-.38h-3.54v-1.3h3.54v-.39h-4.15v-1.51h6.44l-1.74-.9v.52h-2.91c-.61,0-1.02-.08-1.23-.23-.25-.18-.38-.55-.38-1.12v-1.66h-.65v-1.88h1.79v-.94h2.21v.94h1.6v1.88h-2.72v.91c0,.14,.02,.23,.07,.29,.05,.05,.15,.08,.32,.08h1.9v.74c.53-.78,.79-1.72,.79-2.83v-1.85h5.47v4.42c0,.56-.09,.91-.28,1.08-.19,.17-.54,.25-1.07,.25h-1.74l-.35-1.18h1.05c.23,0,.34-.12,.34-.35v-.12h-1.52c-.14,.68-.42,1.34-.84,1.96h4.19v1.51h-4.19v.39h3.57v1.3h-3.57v.38h4.55v1.73Zm-3.59-8.19h1.4v-.38h-1.38c0,.09-.02,.21-.03,.38Zm1.4-1.26v-.36h-1.38v.36h1.38Z"/><path class="f" d="M257.75,32.23c0,2.96-1.61,4.8-4.84,5.52l-1.09-2.25c1.02-.15,1.84-.47,2.46-.98,.7-.56,1.05-1.29,1.05-2.18,0-1.08-.43-1.87-1.29-2.35l-3.41,7.49c-1.16-.26-2.11-.73-2.85-1.42-.94-.86-1.4-1.95-1.4-3.28,0-1.51,.56-2.79,1.68-3.84,1.12-1.05,2.52-1.58,4.19-1.58,1.8,0,3.21,.53,4.21,1.6,.85,.91,1.27,2,1.27,3.26Zm-5.94-2.72c-.85,.06-1.58,.42-2.2,1.07-.62,.65-.92,1.39-.92,2.22,0,.75,.29,1.29,.86,1.62l2.26-4.91Z"/><path class="f" d="M263.89,35.94c-.94,.79-2.13,1.52-3.55,2.21l-1.46-1.59c1.65-.69,2.9-1.37,3.77-2.03h-3.38v-1.79h.96l-1.31-1.77c1.61-.18,2.98-.42,4.1-.73-.35-.23-.68-.47-1-.74-.49,.24-.96,.45-1.43,.61l-1.6-1.42c1.93-.63,3.41-1.44,4.43-2.42l2.35,.29c-.13,.16-.26,.31-.38,.44h4.2v1.37c-.63,.67-1.33,1.26-2.11,1.78,1.11,.28,2.35,.47,3.72,.58l-1.07,1.94c-1.82-.28-3.45-.71-4.88-1.29-1.35,.6-2.94,1.05-4.77,1.35h3.39v-.75h2.26v.75h4.68v1.79h-3.39c.88,.66,2.13,1.33,3.77,2.03l-1.46,1.59c-1.43-.69-2.63-1.45-3.6-2.26v2.41h-2.26v-2.35Zm1.39-6.53c.5-.24,.97-.52,1.4-.84h-2.82c.4,.31,.87,.59,1.42,.84Z"/><path class="f" d="M275.65,38.24h-2.17v-5.08c-.26,.36-.52,.72-.78,1.07l-1.05-2.15c1.14-1.59,2.01-3.5,2.63-5.75l2.15,.35c-.22,.85-.47,1.66-.77,2.42v9.14Zm3.11-11.09c-.04,.28-.12,.71-.22,1.29h.66v-1.91h2.25v1.91h2.31v2.04h-2.31v1.72h2.69v2.04h-2.69v3.96h-2.31v-3.96h-2.92v-2.04h2.92v-1.72h-1.04c-.12,.45-.26,.91-.43,1.39l-1.98-.68c.61-1.55,.99-3,1.14-4.34l1.92,.3Z"/><path class="f" d="M296.44,32.6c-.79,.18-1.59,.42-2.4,.7,.05,.4,.08,1.04,.09,1.92h-2.17v-1.04c-.69,.38-1.03,.72-1.03,1.03,0,.4,.63,.6,1.9,.6,.82,0,1.77-.06,2.85-.19l.14,2.2c-.94,.1-1.87,.14-2.81,.14-2.92,0-4.38-.86-4.38-2.59,0-1.16,.9-2.23,2.69-3.2-.11-.07-.24-.1-.38-.1-.49,0-1,.19-1.52,.58-.46,.34-.87,.77-1.22,1.3-.5,.75-.86,1.31-1.08,1.69l-1.79-1.44c1.01-1.34,1.86-2.76,2.57-4.24l-1.92,.05-.04-2.2c.93,.03,1.88,.03,2.85,.03,.13-.38,.26-.8,.39-1.25l2.41,.25c-.1,.33-.21,.65-.33,.95,1.11-.03,2.42-.1,3.94-.19l.03,2.16c-1.63,.06-3.26,.11-4.89,.16-.11,.22-.27,.49-.47,.83,.55-.25,1.12-.38,1.72-.38,.79,0,1.39,.3,1.81,.9,.82-.3,1.66-.56,2.5-.77l.56,2.11Z"/><path class="f" d="M304.18,32.74c-1,2.3-2.4,4.18-4.23,5.66l-2.11-1.44c2.98-2.08,4.67-4.73,5.07-7.96h-2.98v-2.24h5.47c.07,2.36,.38,4.19,.92,5.5,.71,1.67,2.03,3.22,3.96,4.65l-2.05,1.51c-1.1-.92-1.98-1.84-2.64-2.77-.61-.87-1.08-1.84-1.43-2.91Z"/><path class="f" d="M317.4,26.62c0,.26-.02,.9-.05,1.91h5.07v5.27c0,1.72-.22,2.85-.66,3.39-.44,.53-1.37,.8-2.8,.8h-1.47l-.73-2.17h1.91c.6,0,.98-.14,1.15-.42,.17-.28,.25-.92,.25-1.9v-2.76h-2.85c-.16,1.72-.56,3.15-1.18,4.29-.68,1.24-1.73,2.31-3.15,3.2l-1.96-1.59c1.36-.75,2.34-1.58,2.93-2.48,.57-.86,.93-2,1.08-3.42h-3.48v-2.2h3.55v-1.91h2.39Z"/><path class="f" d="M335.52,32.34c-1.06,3.61-2.93,5.42-5.62,5.42-1.29,0-2.31-.36-3.07-1.08-.88-.83-1.31-2.09-1.31-3.77,0-1.86,.24-3.9,.73-6.1l2.5,.35c-.52,2.2-.78,4.05-.78,5.55,0,.92,.16,1.58,.49,2s.83,.62,1.53,.62c1.49,0,2.58-1.38,3.28-4.13l2.26,1.14Z"/><path class="f" d="M348.17,29.67c-.36,0-.78,.04-1.24,.1-.88,.44-1.71,.97-2.47,1.59-1.1,.88-1.65,1.64-1.65,2.3,0,.93,1.42,1.53,4.26,1.79l-.49,2.39c-4.2-.36-6.29-1.66-6.29-3.91,0-1.27,.84-2.65,2.52-4.12l-4.98,.14-.04-2.3,10.33-.19,.04,2.21Z"/><path class="f" d="M356.53,36.13c-1.17,.93-2.19,1.4-3.06,1.4-.66,0-1.21-.29-1.65-.91-.61-.83-.91-2.14-.91-3.91,0-1.64,.2-3.4,.61-5.28l2.39,.32c-.43,1.7-.65,3.28-.65,4.75s.22,2.3,.66,2.3c.34,0,.91-.35,1.7-1.04l.9,2.37Zm5.32-.83l-2.46,.48c-.29-2.54-1.1-5-2.46-7.38l2.31-.58c1.38,2.22,2.24,4.71,2.6,7.49Z"/><path class="f" d="M373.41,28.39c-1.58,.9-2.64,1.52-3.2,1.85-1.21,.7-2.05,1.22-2.54,1.56-.28,.19-.42,.36-.42,.51,0,.12,.13,.29,.38,.49,.75,.62,2.53,1.92,5.36,3.91l-2.11,1.57c-2.43-1.77-4.28-3.2-5.56-4.3-.62-.53-.92-1.09-.92-1.68,0-.7,.39-1.33,1.18-1.87s2.81-1.83,6.08-3.85l1.75,1.81Z"/><path class="f" d="M387.31,30.04l-.08,2.29c-.7-.06-1.52-.09-2.44-.09-1.18,0-2.29,.04-3.34,.13l.03-1.61c-.18,0-.46,.02-.83,.03-.48,2.28-1.08,4.65-1.81,7.12l-2.38-.68c.75-2.19,1.35-4.33,1.78-6.42-1.17,0-1.73-.01-1.69-.01v-2.29c.7,.02,1.4,.02,2.12,0,.09-.68,.18-1.27,.25-1.79l2.42,.17c-.05,.34-.13,.85-.25,1.55,.75-.03,1.53-.09,2.37-.17l.03,1.78c1.34-.05,2.62-.05,3.83,0Zm.12,7.5c-.99,.13-2.01,.2-3.07,.2-2.63,0-3.94-.74-3.94-2.22,0-.82,.48-1.7,1.43-2.63l2.05,.85c-.7,.58-1.05,1.01-1.05,1.29,0,.34,.62,.51,1.87,.51,.75,0,1.61-.08,2.57-.23l.13,2.25Zm-1.27-8.5l-1.34,.3c-.22-.63-.47-1.25-.77-1.85l1.3-.31c.3,.55,.57,1.17,.81,1.86Zm1.74-.4l-1.36,.33c-.19-.57-.46-1.2-.82-1.87l1.34-.31c.32,.52,.6,1.14,.84,1.86Z"/><path class="f" d="M393.09,27.4c-.39,1.94-.58,3.81-.58,5.62,0,1.49,.09,2.91,.27,4.25l-2.37,.25c-.14-1.19-.21-2.61-.21-4.28,0-2.17,.2-4.21,.58-6.14l2.3,.3Zm7.75,3.98c-.58,.05-1.15,.1-1.72,.13,0,.04,0,.12,.01,.23v.22c0,2.61-.81,4.68-2.44,6.2l-2.28-1.18c.85-.72,1.46-1.49,1.85-2.3,.37-.79,.56-1.7,.56-2.74v-.33c-1.28,.04-2.45,.07-3.5,.09l-.05-2.2c1.14,.02,2.28,0,3.42-.05-.08-.78-.19-1.59-.34-2.42l2.37-.21c.11,.76,.21,1.59,.29,2.47,.66-.06,1.25-.12,1.78-.18l.05,2.26Z"/><path class="f" d="M408.36,35.59l-.73,2.44-2.54-.58,.73-2.43,2.53,.57Zm2.56-8.19l-2.64,7.53-2.02-.46,1.82-7.77,2.83,.7Z"/></g><polygon class="h" points="156.38 77.07 170.32 95.26 134.13 87.46 52.92 114.82 5.16 104.05 12.86 59.2 101.45 13.55 177.43 14.34 188.32 57.95 156.38 77.07"/><polygon class="g" points="154.93 74.86 168.87 93.05 132.69 85.25 51.48 112.6 3.72 101.84 11.42 56.99 100.01 11.34 175.99 12.12 186.87 55.74 154.93 74.86"/><g><path class="e" d="M57.97,77.8c-1.02,6.35-4.04,12.33-9.08,17.96l-6.62-3.38c6.68-6.93,9.56-13.93,8.63-20.99l-13.11,4.6-2.33-6.63,13.5-4.73-2.7-7.69,6.91-2.42,2.7,7.69,14.2-4.98,2.33,6.63-13.35,4.68c2.15,3.04,4.88,5.45,8.18,7.21,3.18,1.75,7.22,3.05,12.11,3.9l-3.48,6.7c-7.55-1.62-13.51-4.46-17.89-8.54Z"/><path class="e" d="M117.51,65.86l-3.29,7.11c-7.5-1.81-13.85-5.66-19.04-11.55-.37,7.11-2.97,14.11-7.79,21.01l-7.48-3.08c8-9.5,10.16-19.51,6.46-30.05l-1.97-5.62,7.57-2.66,1.71,4.88c1.7,4.84,4.43,9.02,8.21,12.54,4.47,4.16,9.67,6.63,15.61,7.41Z"/><path class="e" d="M130.72,63.98c-1.74,2.13-3.89,4.02-6.46,5.69l-6.06-3.92c2.01-1.09,3.77-2.2,5.27-3.34-1.43-.26-2.78-.46-4.02-.6,.27-1.32,.48-2.74,.65-4.26l-3.39,1.19-1.77-5.03,5.5-1.93c.01-.38,0-.95-.03-1.7l1.16-.32-.92-2.61c-.78,1.76-1.83,3.52-3.15,5.27l-5.03-2.71c2.03-2.11,3.45-3.94,4.26-5.48l-4.45,1.56-1.61-4.6,1.87-.66c-1.32-1.35-2.5-2.41-3.53-3.19l4.21-3.75c.81,.65,1.99,1.68,3.54,3.1l-1.49-4.25,6.2-2.18,1.42,4.06c.06-.31,.25-1.91,.55-4.8l5.74,.49c-.22,1.54-.6,3.24-1.15,5.09l1.4-.49,1.6,4.57c0-3.44-.4-7.48-1.18-12.12l6.69-1.29c.2,1.39,.36,2.91,.5,4.56l8.94-3.13,2.18,6.21-1.83,.64c1.6,5.57,2.07,10.62,1.41,15.15,1.7,.92,4.19,1.82,7.47,2.68l-1.68,7.34c-2.92-.99-5.47-2.14-7.65-3.45-1.1,2.61-2.65,5.18-4.65,7.72l-3.56-2.65-2.21,4.45c-1.28-.4-2.86-.82-4.74-1.27Zm-13.78-26.81l-3.26,2.94,3.82-1.34-.56-1.6Zm6.19-2.21l.57,1.64,3.28-1.15-3.85-.49Zm5.21,22.23c.55-1.01,.86-1.97,.92-2.86l-2.65,.93c-.03,.33-.09,.94-.19,1.82,.62,.02,1.26,.06,1.92,.11Zm-1.58-7.64l6.24-2.19-2.27-1.48-.32,1.08c-1.35-.43-2.66-.97-3.94-1.6l.96,2.73-.7,.25c.03,.49,.04,.89,.03,1.22Zm4.3-10.36l-3.67,1.29c1.05,.42,2.25,.76,3.6,1.02,.03-.5,.05-1.27,.07-2.3Zm4.56,13.39c-.17,1.75-.61,3.52-1.3,5.28,.4,.06,1,.15,1.8,.25,2.05-2.32,3.5-4.51,4.36-6.57-1.37-1.33-2.62-2.79-3.73-4.39-.12,1.07-.23,1.89-.31,2.48l-2.39-1.57,1.59,4.53Zm6.19-8.48c-.02-2.39-.42-5.08-1.21-8.08l-3.08,1.08c1.32,2.75,2.75,5.08,4.29,7Z"/></g><g><path class="i" d="M56.64,76.79c-1.02,6.35-4.04,12.33-9.08,17.95l-6.62-3.38c6.68-6.93,9.56-13.93,8.63-20.99l-13.11,4.6-2.33-6.63,13.5-4.74-2.7-7.69,6.91-2.42,2.7,7.69,14.2-4.98,2.33,6.63-13.35,4.68c2.15,3.04,4.88,5.45,8.18,7.21,3.18,1.75,7.22,3.05,12.11,3.91l-3.48,6.7c-7.55-1.62-13.51-4.46-17.89-8.54Z"/><path class="i" d="M116.18,64.85l-3.29,7.11c-7.5-1.81-13.85-5.66-19.04-11.55-.37,7.11-2.97,14.12-7.8,21.01l-7.48-3.08c8-9.5,10.16-19.51,6.46-30.05l-1.97-5.62,7.57-2.65,1.71,4.88c1.7,4.84,4.44,9.02,8.21,12.54,4.47,4.16,9.67,6.63,15.61,7.41Z"/><path class="i" d="M129.39,62.98c-1.74,2.13-3.89,4.02-6.46,5.69l-6.06-3.92c2.01-1.09,3.77-2.2,5.27-3.34-1.43-.26-2.78-.46-4.02-.61,.27-1.32,.48-2.74,.65-4.26l-3.4,1.19-1.77-5.03,5.5-1.93c.01-.38,0-.95-.03-1.7l1.16-.32-.92-2.61c-.78,1.77-1.83,3.52-3.15,5.27l-5.02-2.71c2.03-2.12,3.45-3.94,4.26-5.48l-4.45,1.56-1.61-4.6,1.87-.66c-1.32-1.35-2.5-2.41-3.53-3.19l4.21-3.75c.81,.65,1.99,1.68,3.54,3.1l-1.49-4.25,6.21-2.18,1.42,4.06c.07-.31,.25-1.91,.55-4.79l5.74,.49c-.22,1.54-.6,3.24-1.15,5.09l1.4-.49,1.6,4.57c0-3.44-.4-7.48-1.18-12.12l6.69-1.29c.2,1.39,.36,2.91,.5,4.56l8.94-3.13,2.18,6.2-1.83,.64c1.6,5.57,2.08,10.62,1.41,15.15,1.7,.92,4.19,1.82,7.47,2.68l-1.68,7.34c-2.92-.99-5.47-2.14-7.65-3.45-1.1,2.61-2.65,5.18-4.65,7.72l-3.56-2.65-2.21,4.45c-1.28-.4-2.86-.82-4.74-1.27Zm-13.78-26.81l-3.26,2.94,3.82-1.34-.56-1.6Zm6.19-2.21l.58,1.64,3.28-1.15-3.85-.49Zm5.21,22.23c.55-1.01,.86-1.97,.92-2.87l-2.65,.93c-.03,.33-.09,.94-.19,1.82,.62,.02,1.26,.05,1.92,.11Zm-1.58-7.64l6.24-2.19-2.27-1.48-.32,1.08c-1.35-.43-2.66-.97-3.94-1.6l.96,2.73-.7,.25c.02,.49,.04,.89,.03,1.22Zm4.3-10.36l-3.67,1.29c1.05,.42,2.25,.76,3.6,1.02,.03-.51,.05-1.27,.07-2.3Zm4.56,13.39c-.17,1.76-.61,3.52-1.3,5.28,.4,.06,1,.15,1.8,.25,2.05-2.32,3.5-4.52,4.36-6.57-1.37-1.33-2.62-2.79-3.73-4.39-.12,1.07-.23,1.89-.32,2.48l-2.39-1.57,1.59,4.53Zm6.19-8.48c-.02-2.39-.42-5.08-1.21-8.08l-3.08,1.08c1.32,2.75,2.75,5.08,4.29,7Z"/></g><g><g><g><path class="i" d="M222.53,119.25l-.29-1.06c-.68,.03-1.38,.04-2.08,.04-6.96,0-12.77-1.46-17.27-4.34-5.78-3.76-8.93-9.55-8.93-16.36,0-3.6,.93-7.06,2.72-10.19l-.43-24.27,8.81,.17c.86,.02,1.74,.03,2.64,.03v-5.14h25.65v2.51l.87,1.13,7.06-3.42,4.26,5.04c3.11,3.68,5.82,7.68,8.06,11.9l4.29,8.08-6.16,2.71c1.39,2.83,2.11,6.04,2.11,9.55,0,5.83-2.33,19.69-23.96,22.62l-7.37,1Z"/><path class="i" d="M271.57,121.28l-1-1.85h-16.06v-16.28l-9.55-16.71,6.28-4.23-6.38-8.82,7.2-4.93c3.53-2.41,6.54-5.3,8.96-8.58l4.6-6.23,6.76,4.08h17.16v-.1l.25,.1h14.32v5.81l9.13,3.71-.23,5.96c-.26,6.54-.79,9.07-1.52,10.86-.37,.9-1.04,2.21-2.18,3.51v5.88l-.53,1.16,9.14,1.16-12.13,25.02-6.54-1.42c-4.24-.92-8.08-2.15-11.47-3.67-2.49,1.23-5.13,2.28-7.87,3.16v.56h-1.86l-6.49,1.85Z"/><path class="i" d="M370.12,117.78h-62.2v-25.3h8.22c-.52-1.24-1.08-2.49-1.68-3.75h-5.24v-25.3h16.6v-6.15h26.25v6.15h16.6v25.3h-5.6c-.41,1.21-.85,2.46-1.32,3.75h8.38v25.3Z"/><path class="i" d="M393.64,117.43c-5.03,0-9.69-.34-13.85-1.01l-7.62-1.22,.81-12.91-7-1.66,3.08-8.88c.25-.72,.5-1.45,.74-2.19l-4.36,.03-.45-25.84,8.83,.19c.75,.02,1.5,.03,2.25,.04l1.27-6.73,26.95,2-1.03,4.38c3.3-.15,6.68-.34,10.11-.57l8.81-.59,.75,26.07-.72,.02c.65,1.98,.98,4.11,.98,6.38,0,8.3-4.14,14.97-11.66,18.78-4.79,2.46-10.82,3.72-17.89,3.72Z"/><polygon class="i" points="174.26 169.08 121.31 169.08 121.31 143.18 147.56 143.18 147.56 141.53 121.31 141.53 121.31 115.78 174.26 115.78 174.26 169.08"/><path class="i" d="M183.93,173.38l-14.09-23.72,10.21-3.24c2.94-.93,5.74-2.01,8.39-3.23-3.43-2.68-7.03-4.97-10.73-6.82l-9.3-4.65,16.5-21.09,6.26,3.25c5.99,3.11,11.56,6.8,16.55,10.98l2.27,1.9,6.84-8.07,15.9,22.6-4.47,5.03c-9.72,10.93-22.42,19.25-37.75,24.71l-6.59,2.35Z"/><path class="i" d="M241.8,174.63l-14.47-23.18,7.28-2.62c-.87-.34-1.75-.66-2.64-.97l-10-3.48,7.05-11.42-.34-.12,13.35-22.45,6.47,2.11c5.58,1.82,11.18,4.41,16.67,7.68l5.39,3.22,3.63-4.12,15.46,22.49-4.45,4.98c-9.88,11.05-22.27,19.56-36.82,25.29l-6.58,2.59Z"/><polygon class="i" points="334.76 168.78 282.56 168.78 282.56 143.53 285.16 143.53 285.16 121.23 332.26 121.23 332.26 143.53 334.76 143.53 334.76 168.78"/><path class="i" d="M351.37,176.14v-4.4l-21.96-8.69,3.87-8.2c3.5-7.4,5.72-17.5,6.61-30.02l.61-8.56,10.87,.88v-3.72h26.15v15.84l7.57-8.05,11.07,27.1-4.09,4c-8.39,8.2-18.14,14.61-28.98,19.04l-11.72,4.79Z"/><path class="i" d="M403.7,174.73l-14.47-23.18,7.27-2.62c-.88-.34-1.76-.67-2.64-.98l-9.91-3.46,6.99-11.52-.29-.1,13.21-22.46,6.51,2.14c2.92,.96,5.83,2.12,8.72,3.46l.78-.19-.05-.1,9.02-2.1,6.36-1.56,.05,.08,6.56-1.52,3.21,5.15c1.68,2.69,3.13,5.85,4.31,9.37l2.92,8.76-5.29,1.29,4.53,6.65-4.44,4.96c-9.95,11.11-22.32,19.64-36.76,25.34l-6.58,2.6Z"/><polygon class="i" points="497.54 168.93 443.49 168.93 443.49 143.53 448.14 143.53 448.14 121.08 492.88 121.08 489.68 143.53 497.54 143.53 497.54 168.93"/></g><g><path class="i" d="M246.1,79.28l-7.6,3.35c-1.63-3.03-3.57-6-5.8-8.9l.2,5.7c-2.27,.1-4.95,.2-8.05,.3v2.3c.7-.03,1.22-.05,1.55-.05,6.07,0,10.74,1.19,14.02,3.58,3.28,2.38,4.92,5.74,4.92,10.07,0,7.97-5.53,12.7-16.6,14.2l-2.35-8.55c6.37-.6,9.55-2.57,9.55-5.9,0-3.53-3.12-5.3-9.35-5.3-.37,0-.95,.02-1.75,.05v19.35c-1.43,.17-3,.25-4.7,.25-5.33,0-9.57-1-12.7-3-3.33-2.17-5-5.23-5-9.2,0-3.13,1.15-5.97,3.45-8.5,2.43-2.67,5.87-4.6,10.3-5.8v-3.25l-11.15,.3-.15-8.55c3.57,.07,7.33,.05,11.3-.05v-5.05h8.65v4.7c1.73-.1,4.33-.25,7.8-.45v1.1l6.4-3.1c2.73,3.23,5.08,6.7,7.05,10.4Zm-29.9,21.55v-9.25c-3.4,1.2-5.1,3-5.1,5.4,0,2.53,1.7,3.82,5.1,3.85Z"/><path class="i" d="M271.41,110.93h-8.4v-16.4c-1.07,.8-1.92,1.43-2.55,1.9l-4.2-7.35c5.1-3.43,9.67-7.53,13.7-12.3l2.9,2.25c1.83-1.87,3.07-3.73,3.7-5.6,.6-1.73,.9-4.13,.9-7.2h18.15v9.4c0,.5,.25,.75,.75,.75h.45c.4,0,.68-.5,.85-1.5,.1-.8,.17-2.37,.2-4.7l6.65,2.7c-.17,4.27-.47,6.93-.9,8-.73,1.77-2.42,2.65-5.05,2.65h-6.35c-1.83,0-3.02-.2-3.55-.6-.63-.47-.95-1.53-.95-3.2v-5.9h-2.7c-.27,2.5-.93,4.63-2,6.4-.83,1.43-2.23,3.05-4.2,4.85h22v6.55c-1.43,3.17-3.42,6.07-5.95,8.7,2.9,1.1,6.32,1.9,10.25,2.4l-4.05,8.35c-5.37-1.17-9.83-2.83-13.4-5-3.57,2.2-7.52,3.92-11.85,5.15l-4.2-7.8c3.57-.67,6.73-1.58,9.5-2.75-1.83-2-3.52-4.3-5.05-6.9l6-1.55h-7.75v-7.15h3.75l-2.95-2.3c-1.1,1.4-2.33,2.82-3.7,4.25v23.9Zm3.25-41.9c-3.1,4.53-7.42,8.92-12.95,13.15l-4.85-6.7c4.33-2.97,8-6.48,11-10.55l6.8,4.1Zm13.45,27.5c1.57-1.3,2.83-2.73,3.8-4.3h-7.6c1,1.6,2.27,3.03,3.8,4.3Z"/><path class="i" d="M361.62,109.28h-45.2v-8.3h23.35c2.5-6.07,4.67-12.58,6.5-19.55l9.25,3.05c-1.57,4.83-3.68,10.33-6.35,16.5h12.45v8.3Zm-1.45-29.05h-42.45v-8.3h16.6v-6.15h9.25v6.15h16.6v8.3Zm-24.15,17.25l-8.25,2.7c-1.33-5.03-3.3-10.25-5.9-15.65l7.85-2.75c2.6,4.77,4.7,10,6.3,15.7Z"/><path class="i" d="M414.69,94.93c0,5.1-2.33,8.83-7,11.2-3.63,1.87-8.32,2.8-14.05,2.8-4.6,0-8.77-.3-12.5-.9l.55-8.8c3.4,.67,7.2,1,11.4,1,8.13,0,12.2-1.8,12.2-5.4,0-2.23-1.87-3.35-5.6-3.35-2.5,0-4.97,.48-7.42,1.45-2.45,.97-4.49,2.22-6.12,3.75l-9.05-2.15c1.47-4.23,2.8-8.75,4-13.55l-7.3,.05-.15-8.6c3.13,.07,6.27,.1,9.4,.1,.5-2.4,.92-4.48,1.25-6.25l9.45,.7c-.53,2.27-.97,4.1-1.3,5.5,6.83-.13,14-.45,21.5-.95l.25,8.75c-10.43,.3-18.43,.5-24,.6-.5,1.83-1.08,3.8-1.75,5.9,3.87-2.1,7.98-3.15,12.35-3.15s7.98,1.08,10.45,3.25c2.3,2,3.45,4.68,3.45,8.05Z"/><path class="i" d="M165.76,160.58h-35.95v-8.9h26.25v-18.65h-26.25v-8.75h35.95v36.3Z"/><path class="i" d="M202.27,131.38l-6.1,7.15c-4.63-3.93-9.52-7.18-14.65-9.75l5.75-7.35c5.47,2.83,10.47,6.15,15,9.95Zm19.65,9.3c-8.8,9.9-20.22,17.35-34.25,22.35l-5.05-8.5c13.67-4.33,24.87-11.65,33.6-21.95l5.7,8.1Z"/><path class="i" d="M254.36,139.23l-4.8,7.4c-4.7-2.73-9.63-5-14.8-6.8l4.6-7.45c5.13,1.7,10.13,3.98,15,6.85Zm24.5,1.85c-9.03,10.1-20.23,17.78-33.6,23.05l-5.15-8.25c12.87-4.63,23.95-12.23,33.25-22.8l5.5,8Zm-18.05-13.6l-4.65,7.55c-4.43-2.63-9.38-4.9-14.85-6.8l4.55-7.65c5,1.63,9.98,3.93,14.95,6.9Z"/><path class="i" d="M326.26,160.28h-35.2v-8.25h13.1v-14.25h-10.5v-8.05h30.1v8.05h-10.95v14.25h13.45v8.25Z"/><path class="i" d="M357.62,126.18c-1.07,13.53-3.5,25.53-7.3,36l-9.35-3.7c3.97-8.4,6.43-19.42,7.4-33.05l9.25,.75Zm28.5,20.05c-7.63,7.47-16.38,13.22-26.25,17.25v-41.55h9.15v26.3c4.17-2.77,8.57-6.62,13.2-11.55l3.9,9.55Z"/><path class="i" d="M416.22,139.33l-4.8,7.4c-4.77-2.77-9.68-5.03-14.75-6.8l4.55-7.5c5,1.67,10,3.97,15,6.9Zm24.5,1.8c-9.1,10.17-20.28,17.87-33.55,23.1l-5.15-8.25c12.83-4.63,23.92-12.25,33.25-22.85l5.45,8Zm-18-13.6l-4.7,7.55c-4.47-2.63-9.4-4.9-14.8-6.8l4.5-7.65c5.07,1.67,10.07,3.97,15,6.9Zm11.45,1.95l-5.45,1.25c-.87-2.57-1.92-5.08-3.15-7.55l5.3-1.3c1.23,2.27,2.33,4.8,3.3,7.6Zm7.1-1.65l-5.55,1.35c-.87-2.53-1.97-5.08-3.3-7.65l5.4-1.25c1.33,2.13,2.48,4.65,3.45,7.55Z"/><path class="i" d="M489.04,160.43h-37.05v-8.4h18.85l2.05-14.3h-16.25v-8.15h26.45l-3.2,22.45h9.15v8.4Z"/></g><g><path class="d" d="M246.1,79.28l-7.6,3.35c-1.63-3.03-3.57-6-5.8-8.9l.2,5.7c-2.27,.1-4.95,.2-8.05,.3v2.3c.7-.03,1.22-.05,1.55-.05,6.07,0,10.74,1.19,14.02,3.58,3.28,2.38,4.92,5.74,4.92,10.07,0,7.97-5.53,12.7-16.6,14.2l-2.35-8.55c6.37-.6,9.55-2.57,9.55-5.9,0-3.53-3.12-5.3-9.35-5.3-.37,0-.95,.02-1.75,.05v19.35c-1.43,.17-3,.25-4.7,.25-5.33,0-9.57-1-12.7-3-3.33-2.17-5-5.23-5-9.2,0-3.13,1.15-5.97,3.45-8.5,2.43-2.67,5.87-4.6,10.3-5.8v-3.25l-11.15,.3-.15-8.55c3.57,.07,7.33,.05,11.3-.05v-5.05h8.65v4.7c1.73-.1,4.33-.25,7.8-.45v1.1l6.4-3.1c2.73,3.23,5.08,6.7,7.05,10.4Zm-29.9,21.55v-9.25c-3.4,1.2-5.1,3-5.1,5.4,0,2.53,1.7,3.82,5.1,3.85Z"/><path class="d" d="M271.41,110.93h-8.4v-16.4c-1.07,.8-1.92,1.43-2.55,1.9l-4.2-7.35c5.1-3.43,9.67-7.53,13.7-12.3l2.9,2.25c1.83-1.87,3.07-3.73,3.7-5.6,.6-1.73,.9-4.13,.9-7.2h18.15v9.4c0,.5,.25,.75,.75,.75h.45c.4,0,.68-.5,.85-1.5,.1-.8,.17-2.37,.2-4.7l6.65,2.7c-.17,4.27-.47,6.93-.9,8-.73,1.77-2.42,2.65-5.05,2.65h-6.35c-1.83,0-3.02-.2-3.55-.6-.63-.47-.95-1.53-.95-3.2v-5.9h-2.7c-.27,2.5-.93,4.63-2,6.4-.83,1.43-2.23,3.05-4.2,4.85h22v6.55c-1.43,3.17-3.42,6.07-5.95,8.7,2.9,1.1,6.32,1.9,10.25,2.4l-4.05,8.35c-5.37-1.17-9.83-2.83-13.4-5-3.57,2.2-7.52,3.92-11.85,5.15l-4.2-7.8c3.57-.67,6.73-1.58,9.5-2.75-1.83-2-3.52-4.3-5.05-6.9l6-1.55h-7.75v-7.15h3.75l-2.95-2.3c-1.1,1.4-2.33,2.82-3.7,4.25v23.9Zm3.25-41.9c-3.1,4.53-7.42,8.92-12.95,13.15l-4.85-6.7c4.33-2.97,8-6.48,11-10.55l6.8,4.1Zm13.45,27.5c1.57-1.3,2.83-2.73,3.8-4.3h-7.6c1,1.6,2.27,3.03,3.8,4.3Z"/><path class="d" d="M361.62,109.28h-45.2v-8.3h23.35c2.5-6.07,4.67-12.58,6.5-19.55l9.25,3.05c-1.57,4.83-3.68,10.33-6.35,16.5h12.45v8.3Zm-1.45-29.05h-42.45v-8.3h16.6v-6.15h9.25v6.15h16.6v8.3Zm-24.15,17.25l-8.25,2.7c-1.33-5.03-3.3-10.25-5.9-15.65l7.85-2.75c2.6,4.77,4.7,10,6.3,15.7Z"/><path class="d" d="M414.69,94.93c0,5.1-2.33,8.83-7,11.2-3.63,1.87-8.32,2.8-14.05,2.8-4.6,0-8.77-.3-12.5-.9l.55-8.8c3.4,.67,7.2,1,11.4,1,8.13,0,12.2-1.8,12.2-5.4,0-2.23-1.87-3.35-5.6-3.35-2.5,0-4.97,.48-7.42,1.45-2.45,.97-4.49,2.22-6.12,3.75l-9.05-2.15c1.47-4.23,2.8-8.75,4-13.55l-7.3,.05-.15-8.6c3.13,.07,6.27,.1,9.4,.1,.5-2.4,.92-4.48,1.25-6.25l9.45,.7c-.53,2.27-.97,4.1-1.3,5.5,6.83-.13,14-.45,21.5-.95l.25,8.75c-10.43,.3-18.43,.5-24,.6-.5,1.83-1.08,3.8-1.75,5.9,3.87-2.1,7.98-3.15,12.35-3.15s7.98,1.08,10.45,3.25c2.3,2,3.45,4.68,3.45,8.05Z"/><path class="d" d="M165.76,160.58h-35.95v-8.9h26.25v-18.65h-26.25v-8.75h35.95v36.3Z"/><path class="d" d="M202.27,131.38l-6.1,7.15c-4.63-3.93-9.52-7.18-14.65-9.75l5.75-7.35c5.47,2.83,10.47,6.15,15,9.95Zm19.65,9.3c-8.8,9.9-20.22,17.35-34.25,22.35l-5.05-8.5c13.67-4.33,24.87-11.65,33.6-21.95l5.7,8.1Z"/><path class="d" d="M254.36,139.23l-4.8,7.4c-4.7-2.73-9.63-5-14.8-6.8l4.6-7.45c5.13,1.7,10.13,3.98,15,6.85Zm24.5,1.85c-9.03,10.1-20.23,17.78-33.6,23.05l-5.15-8.25c12.87-4.63,23.95-12.23,33.25-22.8l5.5,8Zm-18.05-13.6l-4.65,7.55c-4.43-2.63-9.38-4.9-14.85-6.8l4.55-7.65c5,1.63,9.98,3.93,14.95,6.9Z"/><path class="d" d="M326.26,160.28h-35.2v-8.25h13.1v-14.25h-10.5v-8.05h30.1v8.05h-10.95v14.25h13.45v8.25Z"/><path class="d" d="M357.62,126.18c-1.07,13.53-3.5,25.53-7.3,36l-9.35-3.7c3.97-8.4,6.43-19.42,7.4-33.05l9.25,.75Zm28.5,20.05c-7.63,7.47-16.38,13.22-26.25,17.25v-41.55h9.15v26.3c4.17-2.77,8.57-6.62,13.2-11.55l3.9,9.55Z"/><path class="d" d="M416.22,139.33l-4.8,7.4c-4.77-2.77-9.68-5.03-14.75-6.8l4.55-7.5c5,1.67,10,3.97,15,6.9Zm24.5,1.8c-9.1,10.17-20.28,17.87-33.55,23.1l-5.15-8.25c12.83-4.63,23.92-12.25,33.25-22.85l5.45,8Zm-18-13.6l-4.7,7.55c-4.47-2.63-9.4-4.9-14.8-6.8l4.5-7.65c5.07,1.67,10.07,3.97,15,6.9Zm11.45,1.95l-5.45,1.25c-.87-2.57-1.92-5.08-3.15-7.55l5.3-1.3c1.23,2.27,2.33,4.8,3.3,7.6Zm7.1-1.65l-5.55,1.35c-.87-2.53-1.97-5.08-3.3-7.65l5.4-1.25c1.33,2.13,2.48,4.65,3.45,7.55Z"/><path class="d" d="M489.04,160.43h-37.05v-8.4h18.85l2.05-14.3h-16.25v-8.15h26.45l-3.2,22.45h9.15v8.4Z"/></g></g><g><path class="d" d="M248.85,93.63c0-4.69-1.65-8.67-4.8-11.62l6.91-3.05-1.77-3.33c-2.07-3.9-4.59-7.61-7.47-11.02l-1.75-2.08-5.64,2.73-2.09,.12-3.26,.19-.63,.04v-4.49h-15.65v5.12c-2.68,.03-5.27,.03-7.73-.02l-3.63-.07,.28,15.71,5.06-.14c-1.25,.88-2.37,1.86-3.36,2.94-2.89,3.19-4.36,6.84-4.36,10.85,0,5.13,2.28,9.33,6.62,12.15,3.69,2.36,8.6,3.55,14.58,3.55,1.82,0,3.54-.09,5.1-.27l.71-.08,.23,.83,3.03-.41c16.22-2.2,19.63-10.82,19.63-17.67Zm-16.4-.25c0,.87-1.55,1.64-4.1,2.11v-3.84c1.81,.13,4.1,.54,4.1,1.74Z"/><path class="d" d="M251.61,85.99l7.76,13.58,.14-.1v12.96h14.05l.5,.94,2.71-.77c3.91-1.11,7.58-2.62,10.92-4.48,3.54,1.86,7.78,3.33,12.62,4.38l2.69,.59,7.38-15.21-4.83-.61c-1.64-.21-3.19-.47-4.63-.79,1.2-1.71,2.23-3.52,3.08-5.39l.31-.69v-6.97c1.4-1,2.15-2.27,2.54-3.22,.44-1.07,.91-3,1.15-9.18l.1-2.46-8.99-3.65v-4.18h-25.15v1.79l-7.02-4.23-1.89,2.57c-2.75,3.73-6.17,7.01-10.16,9.74l-2.96,2.03,6.3,8.7c-1.27,1-2.57,1.96-3.91,2.86l-2.7,1.82Z"/><path class="d" d="M365.12,95.48h-10.68c1.77-4.33,3.25-8.33,4.41-11.92l.59-1.83h4.23v-15.3h-16.6v-6.15h-16.25v6.15h-16.6v15.3h3.38l1.12,2.32c1.88,3.9,3.42,7.73,4.61,11.43h-10.41v15.3h52.2v-15.3Zm-30.48-13.75h7.38c-1.02,3.58-2.13,7.05-3.34,10.38-1.14-3.64-2.49-7.11-4.04-10.38Z"/><path class="d" d="M376.54,82.51c-.86,3.09-1.78,6.06-2.76,8.87l-1.27,3.66,5.72,1.36-.79,12.58,3.14,.5c3.9,.63,8.29,.94,13.06,.94,6.27,0,11.53-1.07,15.63-3.18,5.83-2.96,8.92-7.91,8.92-14.32,0-4.41-1.57-8.01-4.64-10.68-.17-.15-.34-.29-.52-.43,.42-.01,.84-.02,1.26-.04l3.5-.1-.45-15.88-3.63,.24c-5.78,.39-11.42,.66-16.82,.83,.08-.35,.17-.71,.26-1.08l.94-3.99-16.66-1.23-.58,3.07c-.19,1.02-.41,2.15-.66,3.39-2.16-.01-4.33-.04-6.47-.09l-3.64-.08,.27,15.7,6.19-.04Zm17.01,11.67c2.03-.8,4.1-1.21,6.14-1.21,.96,0,1.57,.09,1.94,.18-.61,.66-2.99,1.57-8.54,1.57-.26,0-.53,0-.79,0,.4-.19,.81-.37,1.25-.54Z"/><polygon class="d" points="126.31 134.53 152.56 134.53 152.56 146.18 126.31 146.18 126.31 162.08 169.26 162.08 169.26 118.78 126.31 118.78 126.31 134.53"/><path class="d" d="M193.9,139.2l2.66,2.26,10.66-12.49-2.71-2.27c-4.71-3.95-9.97-7.44-15.64-10.38l-2.58-1.34-10.18,13.01,3.83,1.92c4.86,2.43,9.55,5.56,13.95,9.29Z"/><path class="d" d="M213.55,128.31c-8.26,9.74-19.02,16.77-31.99,20.88l-4.2,1.33,8.77,14.77,2.71-.97c14.53-5.18,26.54-13.02,35.69-23.32l1.84-2.07-9.9-14.07-2.93,3.45Z"/><path class="d" d="M270.73,128.77c-4.69,5.33-9.9,9.9-15.58,13.67l4.13-6.37-.65-.38,7.02-11.39-3.05-1.82c-5.17-3.09-10.43-5.52-15.66-7.22l-2.66-.87-8.18,13.75,.44,.15-7.05,11.42,4.12,1.43c4.62,1.61,9.1,3.64,13.34,6.03-2.6,1.29-5.27,2.43-8.03,3.42l-4.08,1.47,8.99,14.4,2.71-1.07c13.82-5.44,25.57-13.51,34.93-23.97l1.83-2.05-9.6-13.97-2.97,3.37Z"/><polygon class="d" points="316.31 139.28 327.26 139.28 327.26 124.23 290.16 124.23 290.16 139.28 300.66 139.28 300.66 146.53 287.56 146.53 287.56 161.78 329.76 161.78 329.76 146.53 316.31 146.53 316.31 139.28"/><path class="d" d="M379.66,132.28c-2.45,2.61-4.84,4.91-7.15,6.88v-22.74h-16.15v4.14l-11.24-.91-.25,3.53c-.93,13.14-3.31,23.84-7.07,31.8l-1.59,3.38,16.17,6.4,1.23-3.38c1.01-2.79,1.93-5.7,2.76-8.71v14.03l4.82-1.97c10.24-4.19,19.45-10.24,27.37-17.99l1.68-1.65-6.85-16.78-3.73,3.97Z"/><path class="d" d="M444.59,124.72c-1.05-3.15-2.33-5.94-3.8-8.3l-1.32-2.12-6.79,1.57-.02-.04-5.42,1.3v.03l-6.76,1.66,.98,1.97c-4.17-2.25-8.41-4.09-12.65-5.49l-2.68-.88-8.09,13.75,.37,.13-6.98,11.51,4.08,1.42c4.54,1.58,9.01,3.61,13.31,6.04-2.59,1.28-5.25,2.42-7.99,3.41l-4.07,1.47,8.99,14.4,2.71-1.07c13.72-5.41,25.45-13.49,34.87-24.02l1.83-2.04-6.39-9.38,7.03-1.71-1.2-3.61Zm-19.19,5.13l1.01,3,3.15-.72c-3.88,3.96-8.08,7.44-12.56,10.42l4.14-6.38-.68-.4,4.48-7.2c.16,.43,.31,.86,.45,1.28Z"/><polygon class="d" points="483.92 146.53 487.12 124.08 453.14 124.08 453.14 139.23 468.85 139.23 467.8 146.53 448.49 146.53 448.49 161.93 492.54 161.93 492.54 146.53 483.92 146.53"/></g><g><path class="i" d="M246.1,76.28l-7.6,3.35c-1.63-3.03-3.57-6-5.8-8.9l.2,5.7c-2.27,.1-4.95,.2-8.05,.3v2.3c.7-.03,1.22-.05,1.55-.05,6.07,0,10.74,1.19,14.02,3.58,3.28,2.38,4.92,5.74,4.92,10.07,0,7.97-5.53,12.7-16.6,14.2l-2.35-8.55c6.37-.6,9.55-2.57,9.55-5.9,0-3.53-3.12-5.3-9.35-5.3-.37,0-.95,.02-1.75,.05v19.35c-1.43,.17-3,.25-4.7,.25-5.33,0-9.57-1-12.7-3-3.33-2.17-5-5.23-5-9.2,0-3.13,1.15-5.97,3.45-8.5,2.43-2.67,5.87-4.6,10.3-5.8v-3.25l-11.15,.3-.15-8.55c3.57,.07,7.33,.05,11.3-.05v-5.05h8.65v4.7c1.73-.1,4.33-.25,7.8-.45v1.1l6.4-3.1c2.73,3.23,5.08,6.7,7.05,10.4Zm-29.9,21.55v-9.25c-3.4,1.2-5.1,3-5.1,5.4,0,2.53,1.7,3.82,5.1,3.85Z"/><path class="i" d="M271.41,107.93h-8.4v-16.4c-1.07,.8-1.92,1.43-2.55,1.9l-4.2-7.35c5.1-3.43,9.67-7.53,13.7-12.3l2.9,2.25c1.83-1.87,3.07-3.73,3.7-5.6,.6-1.73,.9-4.13,.9-7.2h18.15v9.4c0,.5,.25,.75,.75,.75h.45c.4,0,.68-.5,.85-1.5,.1-.8,.17-2.37,.2-4.7l6.65,2.7c-.17,4.27-.47,6.93-.9,8-.73,1.77-2.42,2.65-5.05,2.65h-6.35c-1.83,0-3.02-.2-3.55-.6-.63-.47-.95-1.53-.95-3.2v-5.9h-2.7c-.27,2.5-.93,4.63-2,6.4-.83,1.43-2.23,3.05-4.2,4.85h22v6.55c-1.43,3.17-3.42,6.07-5.95,8.7,2.9,1.1,6.32,1.9,10.25,2.4l-4.05,8.35c-5.37-1.17-9.83-2.83-13.4-5-3.57,2.2-7.52,3.92-11.85,5.15l-4.2-7.8c3.57-.67,6.73-1.58,9.5-2.75-1.83-2-3.52-4.3-5.05-6.9l6-1.55h-7.75v-7.15h3.75l-2.95-2.3c-1.1,1.4-2.33,2.82-3.7,4.25v23.9Zm3.25-41.9c-3.1,4.53-7.42,8.92-12.95,13.15l-4.85-6.7c4.33-2.97,8-6.48,11-10.55l6.8,4.1Zm13.45,27.5c1.57-1.3,2.83-2.73,3.8-4.3h-7.6c1,1.6,2.27,3.03,3.8,4.3Z"/><path class="i" d="M361.62,106.28h-45.2v-8.3h23.35c2.5-6.07,4.67-12.58,6.5-19.55l9.25,3.05c-1.57,4.83-3.68,10.33-6.35,16.5h12.45v8.3Zm-1.45-29.05h-42.45v-8.3h16.6v-6.15h9.25v6.15h16.6v8.3Zm-24.15,17.25l-8.25,2.7c-1.33-5.03-3.3-10.25-5.9-15.65l7.85-2.75c2.6,4.77,4.7,10,6.3,15.7Z"/><path class="i" d="M414.69,91.93c0,5.1-2.33,8.83-7,11.2-3.63,1.87-8.32,2.8-14.05,2.8-4.6,0-8.77-.3-12.5-.9l.55-8.8c3.4,.67,7.2,1,11.4,1,8.13,0,12.2-1.8,12.2-5.4,0-2.23-1.87-3.35-5.6-3.35-2.5,0-4.97,.48-7.42,1.45-2.45,.97-4.49,2.22-6.12,3.75l-9.05-2.15c1.47-4.23,2.8-8.75,4-13.55l-7.3,.05-.15-8.6c3.13,.07,6.27,.1,9.4,.1,.5-2.4,.92-4.48,1.25-6.25l9.45,.7c-.53,2.27-.97,4.1-1.3,5.5,6.83-.13,14-.45,21.5-.95l.25,8.75c-10.43,.3-18.43,.5-24,.6-.5,1.83-1.08,3.8-1.75,5.9,3.87-2.1,7.98-3.15,12.35-3.15s7.98,1.08,10.45,3.25c2.3,2,3.45,4.68,3.45,8.05Z"/><path class="i" d="M165.76,157.58h-35.95v-8.9h26.25v-18.65h-26.25v-8.75h35.95v36.3Z"/><path class="i" d="M202.27,128.38l-6.1,7.15c-4.63-3.93-9.52-7.18-14.65-9.75l5.75-7.35c5.47,2.83,10.47,6.15,15,9.95Zm19.65,9.3c-8.8,9.9-20.22,17.35-34.25,22.35l-5.05-8.5c13.67-4.33,24.87-11.65,33.6-21.95l5.7,8.1Z"/><path class="i" d="M254.36,136.23l-4.8,7.4c-4.7-2.73-9.63-5-14.8-6.8l4.6-7.45c5.13,1.7,10.13,3.98,15,6.85Zm24.5,1.85c-9.03,10.1-20.23,17.78-33.6,23.05l-5.15-8.25c12.87-4.63,23.95-12.23,33.25-22.8l5.5,8Zm-18.05-13.6l-4.65,7.55c-4.43-2.63-9.38-4.9-14.85-6.8l4.55-7.65c5,1.63,9.98,3.93,14.95,6.9Z"/><path class="i" d="M326.26,157.28h-35.2v-8.25h13.1v-14.25h-10.5v-8.05h30.1v8.05h-10.95v14.25h13.45v8.25Z"/><path class="i" d="M357.62,123.18c-1.07,13.53-3.5,25.53-7.3,36l-9.35-3.7c3.97-8.4,6.43-19.42,7.4-33.05l9.25,.75Zm28.5,20.05c-7.63,7.47-16.38,13.22-26.25,17.25v-41.55h9.15v26.3c4.17-2.77,8.57-6.62,13.2-11.55l3.9,9.55Z"/><path class="i" d="M416.22,136.33l-4.8,7.4c-4.77-2.77-9.68-5.03-14.75-6.8l4.55-7.5c5,1.67,10,3.97,15,6.9Zm24.5,1.8c-9.1,10.17-20.28,17.87-33.55,23.1l-5.15-8.25c12.83-4.63,23.92-12.25,33.25-22.85l5.45,8Zm-18-13.6l-4.7,7.55c-4.47-2.63-9.4-4.9-14.8-6.8l4.5-7.65c5.07,1.67,10.07,3.97,15,6.9Zm11.45,1.95l-5.45,1.25c-.87-2.57-1.92-5.08-3.15-7.55l5.3-1.3c1.23,2.27,2.33,4.8,3.3,7.6Zm7.1-1.65l-5.55,1.35c-.87-2.53-1.97-5.08-3.3-7.65l5.4-1.25c1.33,2.13,2.48,4.65,3.45,7.55Z"/><path class="i" d="M489.04,157.43h-37.05v-8.4h18.85l2.05-14.3h-16.25v-8.15h26.45l-3.2,22.45h9.15v8.4Z"/></g></g><polygon class="f" points="206.71 20.22 217.1 40.68 215.59 41.5 204.07 21.65 206.71 20.22 206.71 20.22"/><polygon class="f" points="430.02 21.65 418.5 41.5 416.99 40.68 427.38 20.22 430.02 21.65 430.02 21.65"/></g></g></g></svg>