<?xml version="1.0" encoding="UTF-8"?><svg xmlns="http://www.w3.org/2000/svg" viewBox="0 0 625.04 46.8"><defs><style>.d{fill:#fff;}.e{fill:#e50153;}.f{fill:none;stroke:#e50153;stroke-linecap:round;stroke-linejoin:round;stroke-width:6px;}</style></defs><g id="a"/><g id="b"><g id="c"><g><g><path class="e" d="M584.93,10.64l1.63-1.97c.83,.72,1.94,1.22,2.88,1.22,1.06,0,1.55-.4,1.55-1.04,0-.69-.66-.91-1.68-1.34l-1.52-.64c-1.25-.5-2.42-1.54-2.42-3.26,0-2,1.79-3.6,4.32-3.6,1.38,0,2.83,.53,3.87,1.57l-1.42,1.79c-.78-.59-1.52-.91-2.45-.91-.88,0-1.41,.35-1.41,.98,0,.67,.74,.93,1.79,1.34l1.49,.59c1.47,.59,2.35,1.58,2.35,3.26,0,1.99-1.67,3.73-4.55,3.73-1.55,0-3.22-.58-4.45-1.71Z"/><path class="e" d="M598.3,2.59h-3.22V.21h9.32V2.59h-3.23V12.13h-2.87V2.59Z"/><path class="e" d="M606.11,.21h7.56V2.59h-4.69v2.21h3.99v2.4h-3.99v2.53h4.87v2.4h-7.73V.21Z"/><path class="e" d="M616.08,.21h4.19c2.61,0,4.77,.94,4.77,3.89s-2.18,4.08-4.71,4.08h-1.39v3.95h-2.87V.21Zm4.11,5.71c1.39,0,2.06-.66,2.06-1.82s-.77-1.62-2.15-1.62h-1.17v3.44h1.25Z"/></g><line class="f" x1="5" y1="31.8" x2="605" y2="31.8"/><circle class="e" cx="5" cy="31.8" r="5"/><circle class="e" cx="605" cy="31.8" r="15"/><circle class="e" cx="562.14" cy="31.8" r="5"/><circle class="e" cx="519.29" cy="31.8" r="5"/><circle class="e" cx="476.43" cy="31.8" r="5"/><circle class="e" cx="433.57" cy="31.8" r="5"/><circle class="e" cx="347.86" cy="31.8" r="5"/><circle class="e" cx="390.71" cy="31.8" r="5"/><circle class="e" cx="305" cy="31.8" r="5"/><circle class="e" cx="262.14" cy="31.8" r="5"/><circle class="e" cx="219.29" cy="31.8" r="5"/><circle class="e" cx="176.43" cy="31.8" r="5"/><circle class="e" cx="133.57" cy="31.8" r="5"/><circle class="e" cx="90.71" cy="31.8" r="5"/><circle class="e" cx="47.86" cy="31.8" r="5"/><g><path class="d" d="M599.3,28.82c-.86,1.02-1.86,1.74-3.38,2.48l-.84-2.34c2.18-.98,3.62-2.1,5.06-3.84h2.02v13.2h-2.86v-9.5Z"/><path class="d" d="M604.5,35.46l2.44-1.06c.54,1.24,1.46,1.82,2.58,1.82s2.06-.74,2.06-2.02-.94-2.04-2.24-2.04c-.76,0-1.5,.24-2.08,.66l-1.94-1,.56-6.7h8.16v2.2h-5.8l-.28,2.96c.64-.24,1.36-.38,2.08-.38,2.54,0,4.58,1.86,4.58,4.22,0,2.52-2.14,4.4-5.08,4.4-2.4,0-4.34-1.18-5.04-3.06Z"/></g></g></g></g></svg>