<?xml version="1.0" encoding="UTF-8"?><svg xmlns="http://www.w3.org/2000/svg" viewBox="0 0 625.07 46.8"><defs><style>.d{fill:#fff;}.e{fill:none;stroke:#f9d6d3;stroke-linecap:round;stroke-linejoin:round;stroke-width:6px;}.f{fill:#e50153;}.g{fill:#f9d6d3;}</style></defs><g id="a"/><g id="b"><g id="c"><g><g><path class="f" d="M0,10.64l1.63-1.97c.83,.72,1.94,1.22,2.88,1.22,1.06,0,1.55-.4,1.55-1.04,0-.69-.66-.91-1.68-1.34l-1.52-.64C1.62,6.37,.45,5.33,.45,3.6,.45,1.6,2.24,0,4.77,0c1.38,0,2.83,.53,3.87,1.57l-1.42,1.79c-.78-.59-1.52-.91-2.45-.91-.88,0-1.41,.35-1.41,.98,0,.67,.74,.93,1.79,1.34l1.49,.59c1.47,.59,2.35,1.58,2.35,3.26,0,1.99-1.67,3.73-4.55,3.73-1.55,0-3.22-.58-4.45-1.71Z"/><path class="f" d="M13.37,2.59h-3.22V.21h9.32V2.59h-3.23V12.13h-2.87V2.59Z"/><path class="f" d="M21.18,.21h7.56V2.59h-4.69v2.21h3.99v2.4h-3.99v2.53h4.87v2.4h-7.73V.21Z"/><path class="f" d="M31.15,.21h4.19c2.61,0,4.77,.94,4.77,3.89s-2.18,4.08-4.71,4.08h-1.39v3.95h-2.87V.21Zm4.11,5.71c1.39,0,2.06-.66,2.06-1.82s-.77-1.62-2.15-1.62h-1.17v3.44h1.25Z"/></g><line class="e" x1="20.07" y1="31.8" x2="620.07" y2="31.8"/><circle class="f" cx="20.07" cy="31.8" r="15"/><circle class="g" cx="620.07" cy="31.8" r="5"/><circle class="g" cx="577.21" cy="31.8" r="5"/><circle class="g" cx="534.36" cy="31.8" r="5"/><circle class="g" cx="491.5" cy="31.8" r="5"/><circle class="g" cx="448.64" cy="31.8" r="5"/><circle class="g" cx="362.93" cy="31.8" r="5"/><circle class="g" cx="405.79" cy="31.8" r="5"/><circle class="g" cx="320.07" cy="31.8" r="5"/><circle class="g" cx="277.21" cy="31.8" r="5"/><circle class="g" cx="234.36" cy="31.8" r="5"/><circle class="g" cx="191.5" cy="31.8" r="5"/><circle class="g" cx="148.64" cy="31.8" r="5"/><circle class="g" cx="105.79" cy="31.8" r="5"/><circle class="g" cx="62.93" cy="31.8" r="5"/><path class="d" d="M20.26,28.82c-.86,1.02-1.86,1.74-3.38,2.48l-.84-2.34c2.18-.98,3.62-2.1,5.06-3.84h2.02v13.2h-2.86v-9.5Z"/></g></g></g></svg>