<?xml version="1.0" encoding="UTF-8"?><svg xmlns="http://www.w3.org/2000/svg" viewBox="0 0 610 46.8"><defs><style>.d{fill:#fff;}.e{stroke:#f9d6d3;}.e,.f{fill:none;stroke-linecap:round;stroke-linejoin:round;stroke-width:6px;}.g{fill:#e50153;}.h{fill:#f9d6d3;}.f{stroke:#e50153;}</style></defs><g id="a"/><g id="b"><g id="c"><g><g><path class="g" d="M284.93,10.64l1.63-1.97c.83,.72,1.94,1.22,2.88,1.22,1.06,0,1.55-.4,1.55-1.04,0-.69-.66-.91-1.68-1.34l-1.52-.64c-1.25-.5-2.42-1.54-2.42-3.26,0-2,1.79-3.6,4.32-3.6,1.38,0,2.83,.53,3.87,1.57l-1.42,1.79c-.78-.59-1.52-.91-2.45-.91-.88,0-1.41,.35-1.41,.98,0,.67,.74,.93,1.79,1.34l1.49,.59c1.47,.59,2.35,1.58,2.35,3.26,0,1.99-1.67,3.73-4.55,3.73-1.55,0-3.22-.58-4.45-1.71Z"/><path class="g" d="M298.3,2.59h-3.22V.21h9.32V2.59h-3.23V12.13h-2.87V2.59Z"/><path class="g" d="M306.11,.21h7.56V2.59h-4.69v2.21h3.99v2.4h-3.99v2.53h4.87v2.4h-7.73V.21Z"/><path class="g" d="M316.08,.21h4.19c2.61,0,4.77,.94,4.77,3.89s-2.18,4.08-4.71,4.08h-1.39v3.95h-2.87V.21Zm4.11,5.71c1.39,0,2.06-.66,2.06-1.82s-.77-1.62-2.15-1.62h-1.17v3.44h1.25Z"/></g><line class="f" x1="5" y1="31.8" x2="304.26" y2="31.8"/><line class="e" x1="306.11" y1="31.8" x2="605.37" y2="31.8"/><circle class="g" cx="5" cy="31.8" r="5"/><circle class="h" cx="605" cy="31.8" r="5"/><circle class="h" cx="562.14" cy="31.8" r="5"/><circle class="h" cx="519.29" cy="31.8" r="5"/><circle class="h" cx="476.43" cy="31.8" r="5"/><circle class="h" cx="433.57" cy="31.8" r="5"/><circle class="h" cx="347.86" cy="31.8" r="5"/><circle class="h" cx="390.71" cy="31.8" r="5"/><circle class="g" cx="305" cy="31.8" r="15"/><circle class="g" cx="262.14" cy="31.8" r="5"/><circle class="g" cx="219.29" cy="31.8" r="5"/><circle class="g" cx="176.43" cy="31.8" r="5"/><circle class="g" cx="133.57" cy="31.8" r="5"/><circle class="g" cx="90.71" cy="31.8" r="5"/><circle class="g" cx="47.86" cy="31.8" r="5"/><path class="d" d="M299.88,34.82c0-1.32,.88-2.46,2.46-3.06-1.5-.76-2.22-1.78-2.22-3.08,0-2.12,2.12-3.76,4.86-3.76s4.9,1.64,4.9,3.7c0,1.3-.86,2.3-2.3,2.84,1.74,.8,2.56,1.8,2.56,3.14,0,2.32-2.22,3.92-5.12,3.92s-5.14-1.6-5.14-3.7Zm4.38-2.22c-.92,.52-1.42,1.2-1.42,2,0,1.08,.86,1.76,2.22,1.76s2.12-.62,2.12-1.5c0-.76-.46-1.18-1.92-1.82l-1-.44Zm.64-2.28l.76,.32c.82-.48,1.26-1.1,1.26-1.9,0-1.04-.8-1.66-1.92-1.66s-1.9,.6-1.9,1.46c0,.7,.38,1.18,1.8,1.78Z"/></g></g></g></svg>