<?xml version="1.0" encoding="UTF-8"?><svg xmlns="http://www.w3.org/2000/svg" viewBox="0 0 610 46.8"><defs><style>.d{fill:#fff;}.e{stroke:#f9d6d3;}.e,.f{fill:none;stroke-linecap:round;stroke-linejoin:round;stroke-width:6px;}.g{fill:#e50153;}.h{fill:#f9d6d3;}.f{stroke:#e50153;}</style></defs><g id="a"/><g id="b"><g id="c"><g><g><path class="g" d="M327.79,10.64l1.63-1.97c.83,.72,1.94,1.22,2.88,1.22,1.06,0,1.55-.4,1.55-1.04,0-.69-.66-.91-1.68-1.34l-1.52-.64c-1.25-.5-2.42-1.54-2.42-3.26,0-2,1.79-3.6,4.32-3.6,1.38,0,2.83,.53,3.87,1.57l-1.42,1.79c-.78-.59-1.52-.91-2.45-.91-.88,0-1.41,.35-1.41,.98,0,.67,.74,.93,1.79,1.34l1.49,.59c1.47,.59,2.35,1.58,2.35,3.26,0,1.99-1.67,3.73-4.55,3.73-1.55,0-3.22-.58-4.45-1.71Z"/><path class="g" d="M341.15,2.59h-3.22V.21h9.32V2.59h-3.23V12.13h-2.87V2.59Z"/><path class="g" d="M348.97,.21h7.56V2.59h-4.69v2.21h3.99v2.4h-3.99v2.53h4.87v2.4h-7.73V.21Z"/><path class="g" d="M358.94,.21h4.19c2.61,0,4.77,.94,4.77,3.89s-2.18,4.08-4.71,4.08h-1.39v3.95h-2.87V.21Zm4.11,5.71c1.39,0,2.06-.66,2.06-1.82s-.77-1.62-2.15-1.62h-1.17v3.44h1.25Z"/></g><line class="f" x1="5" y1="31.8" x2="347.51" y2="31.8"/><line class="e" x1="347.51" y1="31.8" x2="605.01" y2="31.8"/><circle class="g" cx="5" cy="31.8" r="5"/><circle class="h" cx="605" cy="31.8" r="5"/><circle class="h" cx="562.14" cy="31.8" r="5"/><circle class="h" cx="519.29" cy="31.8" r="5"/><circle class="h" cx="476.43" cy="31.8" r="5"/><circle class="h" cx="433.57" cy="31.8" r="5"/><circle class="g" cx="347.86" cy="31.8" r="15"/><circle class="h" cx="390.71" cy="31.8" r="5"/><circle class="g" cx="305" cy="31.8" r="5"/><circle class="g" cx="262.14" cy="31.8" r="5"/><circle class="g" cx="219.29" cy="31.8" r="5"/><circle class="g" cx="176.43" cy="31.8" r="5"/><circle class="g" cx="133.57" cy="31.8" r="5"/><circle class="g" cx="90.71" cy="31.8" r="5"/><circle class="g" cx="47.86" cy="31.8" r="5"/><path class="d" d="M343.19,37.68l.82-2.36c.6,.5,1.6,.84,2.54,.84,2.26,0,3.52-1.56,3.54-4.36-.62,1.08-1.78,1.72-3.12,1.72-2.48,0-4.4-1.84-4.4-4.24s2.14-4.36,4.78-4.36c1.82,0,3.34,.84,4.28,2.3,.76,1.1,1.18,2.54,1.18,4.26,0,4.28-2.42,7.04-6.26,7.04-1.36,0-2.64-.32-3.36-.84Zm6.44-8.44c0-1.22-.92-2.1-2.14-2.1s-2.08,.86-2.08,2.08,.9,2.08,2.1,2.08,2.12-.88,2.12-2.06Z"/></g></g></g></svg>