<?xml version="1.0" encoding="UTF-8"?><svg xmlns="http://www.w3.org/2000/svg" viewBox="0 0 610 46.8"><defs><style>.d{fill:#fff;}.e{stroke:#f9d6d3;}.e,.f{fill:none;stroke-linecap:round;stroke-linejoin:round;stroke-width:6px;}.g{fill:#e50153;}.h{fill:#f9d6d3;}.f{stroke:#e50153;}</style></defs><g id="a"/><g id="b"><g id="c"><g><g><path class="g" d="M542.07,10.64l1.63-1.97c.83,.72,1.94,1.22,2.88,1.22,1.06,0,1.55-.4,1.55-1.04,0-.69-.66-.91-1.68-1.34l-1.52-.64c-1.25-.5-2.42-1.54-2.42-3.26,0-2,1.79-3.6,4.32-3.6,1.38,0,2.83,.53,3.87,1.57l-1.42,1.79c-.78-.59-1.52-.91-2.45-.91-.88,0-1.41,.35-1.41,.98,0,.67,.74,.93,1.79,1.34l1.49,.59c1.47,.59,2.35,1.58,2.35,3.26,0,1.99-1.67,3.73-4.55,3.73-1.55,0-3.22-.58-4.45-1.71Z"/><path class="g" d="M555.44,2.59h-3.22V.21h9.32V2.59h-3.23V12.13h-2.87V2.59Z"/><path class="g" d="M563.25,.21h7.56V2.59h-4.69v2.21h3.99v2.4h-3.99v2.53h4.87v2.4h-7.73V.21Z"/><path class="g" d="M573.22,.21h4.19c2.61,0,4.77,.94,4.77,3.89s-2.18,4.08-4.71,4.08h-1.39v3.95h-2.87V.21Zm4.11,5.71c1.39,0,2.06-.66,2.06-1.82s-.77-1.62-2.15-1.62h-1.17v3.44h1.25Z"/></g><line class="f" x1="5" y1="31.8" x2="562.14" y2="31.8"/><line class="e" x1="562.14" y1="31.8" x2="605" y2="31.8"/><circle class="g" cx="5" cy="31.8" r="5"/><circle class="h" cx="605" cy="31.8" r="5"/><circle class="g" cx="562.14" cy="31.8" r="15"/><circle class="g" cx="519.29" cy="31.8" r="5"/><circle class="g" cx="476.43" cy="31.8" r="5"/><circle class="g" cx="433.57" cy="31.8" r="5"/><circle class="g" cx="347.86" cy="31.8" r="5"/><circle class="g" cx="390.71" cy="31.8" r="5"/><circle class="g" cx="305" cy="31.8" r="5"/><circle class="g" cx="262.14" cy="31.8" r="5"/><circle class="g" cx="219.29" cy="31.8" r="5"/><circle class="g" cx="176.43" cy="31.8" r="5"/><circle class="g" cx="133.57" cy="31.8" r="5"/><circle class="g" cx="90.71" cy="31.8" r="5"/><circle class="g" cx="47.86" cy="31.8" r="5"/><g><path class="d" d="M556.33,28.82c-.86,1.02-1.86,1.74-3.38,2.48l-.84-2.34c2.18-.98,3.62-2.1,5.06-3.84h2.02v13.2h-2.86v-9.5Z"/><path class="d" d="M567.45,35.34h-6.36v-1.66l6.5-8.56h2.72v8.1h1.92v2.12h-1.92v2.98h-2.86v-2.98Zm0-2.12v-4.58l-3.48,4.58h3.48Z"/></g></g></g></g></svg>