<?xml version="1.0" encoding="UTF-8"?><svg xmlns="http://www.w3.org/2000/svg" xmlns:xlink="http://www.w3.org/1999/xlink" viewBox="0 0 90 105.35"><defs><style>.e{fill:#fff;}.f{clip-path:url(#d);}.g{fill:#e50153;}.h{fill:none;}.i{fill:#ffd916;}</style><clipPath id="d"><path class="h" d="M90,60.35c0,24.85-20.15,45-45,45S0,85.2,0,60.35C0,7.39,20.15,0,45,0s45,35.49,45,60.35Z"/></clipPath></defs><g id="a"/><g id="b"><g id="c"><g class="f"><circle class="i" cx="45" cy="60.35" r="45"/><g><path class="e" d="M110.44,149.48l-.05-.16c-.45-1.39-1.17-3.61-2.07-6.33-4.78-14.41-7.57-21.59-8.32-23.45-.71-1.79-1.32-3.24-1.88-4.57-.36-.86-.7-1.66-1.03-2.48-2.1-5.17-4.98-12.25-11.92-16.81-2.12-1.39-3.94-2.06-6.04-2.84-1.66-.61-3.72-1.37-6.71-2.78-1.02-.48-2-.94-2.92-1.39,.31-.12,.61-.24,.92-.37,.88-.26,1.67-.53,2.34-.77,1.58-.56,9.7-3.74,14.56-11,8.66-12.92,1.57-30.11-3.12-41.48-4.7-11.4-9.14-22.17-20.85-27.62-4.24-1.98-8.89-2.98-13.8-2.98-3.97,0-8.01,.64-12.04,1.92-4.69,.98-13.24,3.82-20.06,11.95-2.81,3.35-9.57,11.14-8.35,20.39,.88,6.65,5.77,13.23,9.08,17.69,.74,1,1.39,1.81,1.85,2.37,.04,.68,.12,1.64,.28,2.79,.32,2.24,.67,5.06,2.07,7.76,1.04,2.01,2.26,3.25,4.31,5.42,1.95,2.06,3.79,3.59,5.2,4.65-1.69,1.6-3.65,3.29-5.88,4.97-1.77,1.33-3.5,2.49-5.12,3.48-1.54,.76-3.07,1.51-4.59,2.22-2.34,1.1-4.37,1.82-6.16,2.46-2.19,.78-4.16,1.47-5.87,2.6-3.79,1.34-6.1,6.28-8.72,14.35-2.51,7.71-4.45,16.1-4.99,18.49-.6,2.68-1.15,5.38-1.63,8.09-3.25-3.17-6.54-6.28-9.86-9.32-4.99-4.57-10.15-9.09-15.35-13.42l-.56-.47c-.28-1.56-.9-4.04-3.44-6.2-2.55-2.18-5.2-2.54-8.86-3.05-1.66-.23-2.88-.26-3.87-.28-1.15-.03-1.84-.04-3.11-.36-.69-.17-1.27-.37-2.67-.85-1.06-.37-1.85-.68-2.5-.93-1.59-.62-2.96-1.16-5.06-1.34-.29-.02-1.07-.09-1.96-.09-5.41,0-7.12,2.98-7.65,4.76-.04,.12-.07,.23-.09,.35l-.41-.17c-4.84-1.93-7.72-3.03-10.6-3.03-1.33,0-2.58,.24-3.84,.72-3.98,1.54-6.22,4.51-5.99,7.93,.33,4.95,4.76,6.21,7.69,7.05,.62,.18,1.31,.37,2.06,.61,2.26,.71,8.26,2.6,13.01,5.96,.96,.68,2.33,1.58,4.42,2.48,1.53,.66,3.44,.99,5.85,.99,1.11,0,2.36-.07,3.54-.2,.32-.04,.66-.05,1.01-.05,2.36,0,5.06,.82,6.72,2.05,.36,.27,.65,.53,.89,.82-1.54,3.53-3.05,7.11-4.51,10.66l-2.04,4.97,4.62,2.53c2.98,1.63,5.96,3.43,8.85,5.33,3.08,2.03,4.8,3.35,7.64,5.55,1.68,1.29,3.71,2.86,6.58,5.01,3.48,2.61,7.25,5.17,14.75,10.29,7.13,4.86,10.44,7.01,14.21,7.01,1.27,0,2.5-.27,3.67-.81,.43-.2,.81-.4,1.17-.65-.72,7.02-2.09,14.11-4.09,21.17l-2.13,7.48,47.71,.48,52.19,.52-5.5-9.11c-1.55-2.58-3.07-5.23-4.5-7.89-2.24-4.16-3.85-7.15-5.08-9.92,1.78-.85,3.43-1.65,4.93-2.38,5.59-2.72,8.63-4.25,12.34-6.56,4.18-2.61,8.2-5.56,11.94-8.78l2.82-2.42-3.43-13.02Z"/><g><path class="g" d="M32.1,105.31s0,.07,0,.1c0,.29-.01,.58-.02,.87,4.27,1.39,9.12,1.7,13.66,.92,.09-.2,.17-.4,.26-.6-4.65,.72-9.63,.3-13.9-1.29Z"/><path class="g" d="M19.08,58.51c-.31-.98-.7-2.44-.94-4.22-.36-2.61-.39-5.91,.65-9.44,.08-.28,.59-1.96,1.47-3.84,3.52-.93,7.33-.72,10.72,.63-2.38-2.52-6.73-3.02-10.17-1.74,.57-1.07,1.26-2.14,2.04-2.98,.23-.25,1.7-1.8,3.24-3.65,1.77-2.13,1.94-2.52,4.36-5.52,2.61-3.25,4.83-5.79,6.29-7.42,1.42,1.74,3.69,4.35,6.75,7.25,7.96,7.53,11.1,7.17,14.24,12.19,1.66,2.65,2.35,5.32,2.73,8.83,1.09-1.33,2.72-2.6,4.28-2.18,2.37,.65,3.39,4.93,3.03,7.98-.54,4.56-4.42,8.71-6.71,7.98-.09-.03-.18-.09-.27-.13-.25,1.98-.67,3.16-.97,3.91-1.24,3.05-3.15,5.32-4.54,6.97h0c-.73,.87-1.66,1.61-2.76,2.22-.82,.46-1.73,.85-2.77,1.15,.62,.73,1.54,1.69,2.77,2.6,1.16,.86,2.59,1.69,4.32,2.23,2.29,.73,4.46,.77,6.47,.46,9.08-4.55,12.12-10.5,13.14-12.93,3.81-9.12,.15-18.82-3.98-29.81-2.17-5.77-4.55-10.29-6.28-13.28,5.98,8.53,9.26,16.31,11.1,21.73,2.67,7.81,4.8,14.39,2.05,21.24-1.33,3.32-3.46,5.77-4.83,7.12-3.49,3.45-7.36,4.98-9.86,5.67,1.98-.45,3.79-1.17,5.4-1.81,1.73-.69,8.45-3.35,12.31-8.93,7.2-10.42,.8-25.48-3.86-36.45-4.73-11.13-8.67-20.4-18.83-24.98-9.69-4.37-19.36-1.92-23.17-.72-2.84,.54-11.33,2.56-17.98,10.26-1.51,1.74-6.58,7.81-7.31,17.14-.96,12.34,6.43,20.88,7.88,22.49h0Z"/><path class="g" d="M47.98,49.72c-.72,.67-1.18,1.63-1.18,2.69,0,2.04,1.66,3.7,3.7,3.7s3.7-1.66,3.7-3.7c0-.91-.34-1.73-.88-2.37,1.58,.48,3.07,1.3,4.32,2.48l.17-.17c-1.92-6.59-12.54-6.96-15.1-.66l.15,.19c1.52-1.14,3.3-1.85,5.13-2.15Zm.76,.84c.51,0,.92,.41,.92,.92s-.41,.92-.92,.92-.92-.41-.92-.92,.41-.92,.92-.92Z"/><path class="g" d="M30.49,51.84l.16-.18c-.29-1.42-1.2-2.54-2.37-3.31-3.51-2.49-9.5-.51-10.04,3.99l.18,.16c1.11-1.24,2.55-2.08,4.08-2.5-.56,.65-.91,1.48-.91,2.4,0,2.04,1.66,3.7,3.7,3.7s3.7-1.66,3.7-3.7c0-.71-.21-1.37-.56-1.93,.74,.34,1.43,.79,2.06,1.36Zm-7.88-.06c0-.51,.41-.92,.92-.92s.92,.41,.92,.92-.41,.92-.92,.92-.92-.41-.92-.92Z"/><path class="g" d="M58.01,41.82l.05-.11c-4.19-3.49-11.1-3.29-15.17,.32l.05,.11c4.71-2.15,10.29-2.36,15.07-.32Z"/><path class="g" d="M42.91,70.69c-1.25-.22-3.13-.35-5.17,.37-.41,.15-.79,.32-1.14,.49-.33-.15-.68-.3-1.05-.43-1.95-.7-3.79-.86-5.26-.81,.73,.65,3.11,2.61,6.57,2.6,3.08-.01,5.26-1.59,6.05-2.22Z"/><path class="g" d="M30.71,82.84c-1.99,3.45-6.6,4.03-8.54,7.5-3.12,5.06-6.27,10.21-9.43,15.25l10.05,2.37,2.08,.49-1.48,1.61-6.54,7.13c5.14,9.95,9.01,20.55,11.53,31.46,.1-6.92,.26-13.85,.56-20.77,.68-15.07,2.71-29.94,1.76-45.04h0Z"/><path class="g" d="M53.54,82.84c-.18,3.47-.11,6.89-.22,10.29-2.51,5.72-4.74,11.55-6.85,17.41-5.5,15.32-9.65,31.1-12.4,47.13,9.37-12.15,19.35-24.84,28.7-36.62-1.66-2.61-5.68-8.93-6.31-9.93,4.3-.45,8.62-.91,12.93-1.33-1.18-3.05-2.38-6.1-3.52-9.16l-3.98-10.57c-.2-.21-1.15-1.55-1.76-1.94-2.21-1.7-5.11-2.71-6.59-5.26h0Z"/><path class="g" d="M96.57,167.94c5.16-3.12,9.13-6.18,11.8-8.41-.85-3.12-1.7-6.25-2.54-9.37h0c-.45-1.41-1.17-3.65-2.08-6.39-4.72-14.35-7.49-21.55-8.27-23.52-1.18-2.98-2.07-5.03-2.92-7.14-2.21-5.47-4.51-10.85-9.81-14.36-3.01-1.99-5.3-2.06-12.17-5.32-3.16-1.49-5.88-2.84-8.02-3.96,.04,.06,.09,.11,.13,.17,2.75,6.12,6.66,14.61,9.29,20.67l.58,1.3-1.47,.22c-3.32,.49-6.65,.96-9.97,1.42l4.81,7.05,.61,.89c-5.73,7.52-11.4,15.08-17.19,22.56-4.95,6.46-11.95,15.47-17.61,22.73,0,1.88,.02,3.76,.03,5.62-1.19,.24-2.37,.51-3.54,.82-1.04-19.16-5.94-38.07-14.38-55.31l-.45-.94,.69-.71,6-6.13c-3.59-1.01-10.54-2.96-10.58-2.98l.79-1.15c2.85-4.14,5.8-8.28,8.72-12.41-.1,.05-.2,.1-.31,.15-6,2.84-10.08,3.4-12.17,5.32l-.06,.05c-.08,.08-.15,.17-.23,.25-.18-.18-.37-.28-.55-.3-3.26-.44-8.7,19.19-11.01,29.13-1.86,8.02-2.83,14.75-3.37,19.31-5.73-5.7-11.89-11.54-18.52-17.43-5.39-4.79-10.7-9.28-15.89-13.48l-.04,.07c-.34,.7-.68,1.43-1.02,2.13-1.3,2.71-2.61,5.47-3.9,8.28-.34,.75-.69,1.48-1.03,2.23-.04,.08-.07,.15-.1,.23-1.93,4.26-3.77,8.45-5.51,12.57,2.2,1.17,5.64,3.07,9.71,5.67,5.35,3.42,7,4.98,15.21,10.94,3.54,2.57,7.45,5.15,15.27,10.33,8.04,5.32,10.67,6.88,13.02,5.84,.71-.32,1.12-.75,5.36-8.56,2.77-5.1,3.07-5.8,3.39-6.7,.81-2.31,1.17-4.46,1.3-6.31,.36,6.65,1.14,10.03,.87,18.54-.24,7.46-1.26,18.19-4.9,31.08l5.66,.06v.49c6.28,.04,12.55,.03,18.83,0l-.21-14.86c-2.49,.18-5.3,.16-7.33-.81-1.01-.71-2.37-1.28-3.54-1.72-.76-.33-1.64-.77-2.45-.96-.52-.11-1.41-.77-1.48-1.07,.01-.42,.81-.87,1.21-1.21,1.96-1.41,4.17-3.17,6.22-4.31,1.27-.43,3.53-.88,4.86-1.25,2.06-.33,4.2-.62,6.27-.99,.12-.02,.21-.03,.21-.03h0c-3.18,.03-6.91,1.21-9.74-.45,4.54-1.83,10.18-2.45,15.25-2.96,5.85-.56,11.75-1.28,17.48-2.66,.59,1.47,1.31,3.01,2.19,4.6,.55,.99,1.12,1.91,1.7,2.78-3.3,1.03-6.38,2.77-9.04,4.94-5.48,3.4-11.76,4.97-18.2,5.77l.21,15.2c2.84,0,5.68-.02,8.52-.02,0,0,6.23-.02,12.01-.03l34.07,.34c-1.18-1.96-2.83-4.8-4.69-8.28-3.81-7.13-5.98-11.2-7.59-16.57,3.46-1.59,6.54-3.03,9.19-4.28,6.01-2.83,8.86-4.24,12.4-6.39Zm-22.82-11.07c.69-3.02,1.68-6.76,2.86-13.39,.27-1.54,.5-2.92,.69-4.12,.87,2.55,2.04,5.68,3.65,9.39,.88,2.03,1.67,3.7,2.21,4.84-3.02,1.12-6.16,2.21-9.41,3.28Z"/></g></g><rect class="h" x="27.72" y="84.46" width="20.73" height="27.91"/></g></g></g></svg>