<?xml version="1.0" encoding="utf-8"?>
<!-- Generator: Adobe Illustrator 23.0.1, SVG Export Plug-In . SVG Version: 6.00 Build 0)  -->
<svg version="1.1" id="レイヤー_1" xmlns="http://www.w3.org/2000/svg" xmlns:xlink="http://www.w3.org/1999/xlink" x="0px"
	 y="0px" viewBox="0 0 114.8 24.4" style="enable-background:new 0 0 114.8 24.4;" xml:space="preserve">
<style type="text/css">
	.st0{fill:#40230F;}
	.st1{fill:#FFFFFF;}
	.st2{fill:#E83B1A;}
	.st3{fill:#C69635;}
	.st4{fill:#F5C53C;}
	.st5{fill:#231815;}
	.st6{fill:#F4C61E;}
</style>
<g>
	<g>
		<path class="st0" d="M21.9,9.7c-0.2-0.1-0.4-0.2-0.6-0.2c-0.1-0.3-0.4-0.6-0.6-0.8c-0.1,0-0.1-0.1-0.2-0.1c-0.6-0.2-1,0-1.2,0.1
			c-0.1,0-0.1,0.1-0.2,0.1c-0.3-0.1-0.6-0.1-0.9,0c0.2-0.3,0.4-0.6,0.5-0.9C19.2,7,19.2,6.2,19.2,6c0-0.7-0.3-1-0.5-1.2
			c-0.3-0.2-0.8-0.2-1.1,0.1l-0.2,0.1l-0.1,0.2c-0.2,0.5-0.5,0.9-0.9,1.1c-0.4,0.2-0.9,0.2-1.4,0.3c-0.4,0-0.7,0-1.1,0
			c0,0,0,0-0.1-0.1c0,0,0,0,0,0l0.1,0l0.1-0.1c0.2-0.1,4.4-2.3,4.1-5.7l0-0.2L18,0.5C17.9,0.2,17.6,0,17.2,0c-0.7,0-1.2,0.6-1.3,0.9
			l0,0.1l0,0.1c0,0.1-0.5,1.1-1.9,1l0,0C13,2,12.1,2,11.2,2.2c-2,0.3-3,1.5-3.9,2.8C6.8,5.1,6.1,5.2,5.6,5.5c-0.3-0.3-0.6-0.6-1-0.6
			C4.2,4.9,3.9,5,3.7,5.2L3.7,5.2C3.4,5.6,3,6.3,3.2,7.2C2.8,7.6,2.1,8.5,1.5,9.7c-0.8,1.6-1.7,4.1-1.4,7.1l0,0.1
			c0,0.1,0.6,3,2.5,4.7c-0.1,0.3-0.1,0.5-0.1,0.7c0.1,1,1.3,1.5,1.7,1.6C4.5,24,4.7,24,5,23.8c0.2-0.2,0.4-0.4,0.4-0.7l0-0.1
			c0.1,0,0.2,0,0.3,0c-0.1,0.2-0.2,0.5-0.1,0.7C5.5,24,5.7,24.2,6,24.3c0,0,0.2,0.1,0.5,0.1c0.4,0,1.1-0.1,1.7-1.1
			c0.1,0,0.2,0,0.3,0c0,0.2,0.2,0.5,0.4,0.6c0.1,0,0.4,0.2,0.9,0.2c0.2,0,0.4,0,0.7-0.1c0.3-0.1,0.8-0.4,1.1-1
			c0.2,0,0.4-0.1,0.5-0.2c0,0,0,0,0,0l0,0.5c0,0.2,0.1,0.4,0.2,0.6c0.1,0.1,0.4,0.3,0.8,0.3c0,0,0.1,0,0.1,0c0.4,0,0.8-0.3,1.1-0.7
			l0.1-0.1c0.1-0.1,0.6-1.2,0.5-2.2c0.2-0.3,0.5-1,0.6-1.8c0-0.2,0.1-0.3,0.1-0.5c0.4-0.2,0.6-0.6,0.7-1.1c0.1-0.1,0.3-0.3,0.3-0.4
			c0-0.1,0.4-0.7,0.2-1.4c0-0.1-0.1-0.2-0.2-0.3c0.7-0.2,1.4-0.8,1.7-1.5c0-0.1,0.1-0.2,0.1-0.3c0.2,0.1,0.4,0.1,0.6,0.1
			c0.2,0,0.5-0.1,0.7-0.2c0.1,0,0.2-0.1,0.3-0.2c0.4,0.1,0.8,0.1,1.1,0l0.1-0.1c0.7-0.4,0.9-0.9,0.9-1.3c0-0.2,0-0.3-0.1-0.5
			c0.2-0.3,0.3-0.7,0.3-0.8l0,0C22.5,10.2,22.2,9.9,21.9,9.7z M17,10.9c0,0.1,0.1,0.3,0.2,0.4l-0.3,0.1c-0.1,0-0.1,0.1-0.1,0.1
			c0-0.1-0.1-0.1-0.1-0.1l0,0c-0.2-0.2-0.5-0.4-0.8-0.6c0,0,0-0.1,0-0.1c0.5-0.2,1-0.5,1.4-0.8C17,10.3,17,10.7,17,10.9z"/>
		<g>
			<path class="st1" d="M14.8,7.3L14.8,7.3c0.7,0,1.4-0.1,2-0.4c0.5-0.3,1-0.9,1.2-1.5c0,0,0,0.1,0,0.2v0v0c0,0,0,2.7-3.2,3.9
				c0,0,0-0.1,0-0.1c-0.2-0.6-0.5-1.4-1.1-2.1C14.1,7.3,14.4,7.3,14.8,7.3z"/>
			<path class="st1" d="M7.7,5.4c0.9-1.4,1.7-2.4,3.4-2.7c0.8-0.1,1.7-0.2,2.5-0.1c0.1,0,0.3,0,0.4,0c1.8,0,2.4-1.4,2.5-1.6
				c0.2-0.3,0.3-0.4,0.4-0.4c0.1,2.6-3.2,4.4-3.5,4.6c-0.6,0.1-1.2,0.8-1.3,0.9l0,0l0,0C11.7,8,9.8,7.8,9.8,7.8l0,0
				C9,7.7,8.4,7.5,8.1,7.1C7.6,6.4,7.7,5.6,7.7,5.4z"/>
			<path class="st1" d="M3.7,22.2C3.7,22.2,3.7,22.2,3.7,22.2C3.8,22.1,4,22,4.1,22v0.4C4,22.4,3.8,22.3,3.7,22.2z"/>
			<path class="st2" d="M4.2,21.8C4.2,21.9,4.1,21.9,4.2,21.8c-0.3,0.1-0.4,0.1-0.5,0.2c0,0,0,0-0.1,0.1c-0.1-0.1-0.2-0.2-0.2-0.3
				c0-0.2,0.1-0.3,0.3-0.4c0.2,0.1,0.5,0.3,0.7,0.4L4.2,21.8z"/>
			<path class="st1" d="M6.4,22.5c0.1,0,0.3,0.1,0.4,0.3c-0.2,0.1-0.3,0.2-0.4,0.2C6.4,22.8,6.4,22.6,6.4,22.5z"/>
			<path class="st1" d="M9.5,22.6c0.1-0.1,0.2-0.2,0.2-0.3c0.1,0,0.2,0,0.3,0.2c0,0,0,0.1,0,0.1c0,0-0.1,0-0.1,0
				C9.8,22.7,9.6,22.7,9.5,22.6z"/>
			<path class="st2" d="M10.2,22.5C10.2,22.5,10.1,22.4,10.2,22.5c-0.2-0.2-0.3-0.3-0.4-0.3c0,0,0,0,0-0.1c0.2,0,0.5-0.1,0.7-0.1
				C10.4,22.3,10.3,22.4,10.2,22.5z"/>
			<path class="st1" d="M13,22.8C13,22.8,13,22.8,13,22.8l0-0.3c0.2,0,0.3,0,0.4,0c0,0,0,0,0,0.1C13.2,22.7,13.1,22.7,13,22.8z"/>
			<path class="st2" d="M15.5,16.8c-0.1,0.3-0.3,0.6-0.6,0.8c0-0.2,0-0.4,0-0.6C15,17,15.2,17,15.5,16.8z"/>
			<path class="st2" d="M13.8,15l-1.1-0.5c-2.7-1.2-4.5,0-4.6,0.1c0,0,0,0,0,0c-0.3,0.2-0.4,0.5-0.4,0.8c0.1,0.5,0.7,0.8,0.8,0.8
				c0.9,0.4,2.4-1.5,2.5-1.7c0,0,0-0.1,0-0.1c0.5,0.1,1,0.2,1.5,0.4l0.8,0.4c-0.2,0.2-0.6,0.7-0.7,0.7c-0.7,0.6-1.6,1-2.5,1.2
				c-0.6,0.1-1.2,0.1-1.8,0.1c-0.4,0-1,0-1.4-0.2c0,0,0.7,0.8,3.1,0.2c0,0,2.3-0.3,3.5-2c1.7,2.3,0,5.1,0,5.1c0,0,0,0.1,0,0.1
				c0.1,0.6-0.2,1.4-0.3,1.7c-0.1,0-0.3,0-0.4,0l0-0.3c0-0.1,0-0.1-0.1-0.2c-0.2-0.1-0.3-0.2-0.4-0.3c0.2-0.1,0.4-0.2,0.5-0.4
				c0.1-0.1,0.1-0.2,0-0.3c-0.1-0.1-0.2-0.1-0.3,0c-0.5,0.6-1.8,0.9-3,1c0,0,0,0,0,0c-1.2,0.1-2.2,0.1-2.2,0.1c-0.1,0-0.2,0-0.2,0.1
				c-0.1,0.3-0.3,0.5-0.4,0.7c-0.1-0.2-0.4-0.3-0.5-0.3c0-0.3-0.1-0.5-0.1-0.5c0-0.1-0.1-0.1-0.2-0.1c-0.9,0-1.7-0.2-2.4-0.7
				c-2.1-1.4-2.8-4.5-2.8-4.7c-0.3-2.7,0.5-5,1.3-6.5c0.7-1.4,1.5-2.3,1.7-2.5c0,0.1,0.7,1.1,1.6,1.1c0,0,0.4,0.1,0.9,0
				C6.6,8.9,7,8.8,7,8.8c0.3-0.1,0.2-0.3,0.2-0.3c-0.4,0.3-0.6,0.1-0.7,0C6.8,8.4,7,8.3,7.3,8.1c0,0-0.1,0-0.5,0.1
				c0,0-0.9,0.2-1.7-0.1c0,0-1.1-0.4-1.1-1.5c0-0.2,0-1.4,0.4-1C4.8,5.8,5,6.2,5.3,6.5C5.7,6.8,6,7.1,6.5,7.3
				c0.2,0.1,0.4,0.1,0.6,0.2c0.1,0,0.3,0.1,0.5,0.1c0,0-1.3-0.7-2.1-1.3C6,5.8,6.9,5.6,7.3,5.6c0,0.1,0,0.2,0,0.3
				C7.2,6,6.9,6.3,7.1,6.9c0,0-0.1-0.5,0.3-0.7c0,0.3,0.2,0.7,0.4,1.1c0.4,0.5,1.1,0.8,1.9,0.9c0,0,0.1,0,0.2,0
				c0.5,0,1.6-0.1,2.2-1.1c0.5,0.5-0.3,1-0.3,1c1-0.2,0.6-1,0.5-1.3c0-0.1,0.1-0.2,0.1-0.3c2,1.6,2.2,3.6,2.2,4.3c0,0-0.1,0-0.1,0
				c-1.2,0-2.3,1.2-2.4,1.2c-0.1,0.1-0.1,0.2,0,0.3c0,0,0.1,0,0.1,0c0.1,0,0.1,0,0.1-0.1c0,0,1-1.1,2.1-1.1c0,0,0,0,0,0
				c0.4,0,0.8,0.2,1.1,0.5c-0.1,0-0.1,0.1-0.2,0.2c-0.1,0.1-0.1,0.3,0,0.4c0.1,0.1,0.4,0.3,0.5,0.2c0,0,0.1,0,0.1,0.1c0,0,0,0,0,0.1
				c0,0.4-0.1,0.8-0.3,1.2c0,0,0,0,0,0c-0.2,0-0.8-0.2-1-1.3c0.3,0,0.2-0.4,0.2-0.4c-0.2-0.4-0.6-0.4-0.6-0.4
				c-0.5,0.1-0.3,0.4-0.3,0.5c0,0.4,0.2,2.1,1.3,2.5C14.8,15.2,14,15,13.8,15z"/>
			<path class="st1" d="M10,15.3L9.7,15L10,15.3c-0.3,0.3-0.6,0.5-0.8,0.6L9,15.2l0,0.6c-0.1,0-0.2,0-0.3,0c0,0,0,0,0,0
				c-0.1-0.1-0.5-0.3-0.6-0.5c0-0.1,0.1-0.3,0.3-0.4c0.1-0.1,1-0.6,2.3-0.5C10.5,14.7,10.2,15,10,15.3z"/>
			<path class="st3" d="M17.4,13.6c-0.2,0.6-1.1,1.1-1.7,1c-1.2-0.2-1.4-2-1.4-2.4c0,0,0.1,0.1,0.2,0.1c0.3,1.9,1.4,1.8,1.5,1.8
				c0,0,0,0,0,0c0,0,0,0,0,0c0,0,0,0,0,0c0.5-0.1,0.8-0.5,0.8-0.8c0-0.3-0.1-0.6-0.3-0.8c0-0.1-0.1-0.1-0.1-0.1
				c-0.2-0.1-0.3-0.2-0.4-0.3c0,0,0,0,0-0.1c0,0,0,0,0,0c0.4,0,1,0.3,1.3,0.7C17.3,12.9,17.5,13.2,17.4,13.6z"/>
			<g>
				<path class="st0" d="M21.6,10.5c0-0.3-0.1-0.6-0.2-0.7c-0.2-0.2-0.6-0.1-0.8-0.1c0.1-0.4-0.2-0.8-0.4-0.9c0,0,0,0,0,0
					c-0.3-0.1-0.5-0.1-0.7,0.1c-0.2,0.1-0.3,0.3-0.3,0.5C18.7,8.9,18.2,9,18,9.2c0,0,0,0,0,0c-0.4,0.4-0.5,0.8-0.4,1.2
					c0.1,0.4,0.4,0.7,0.6,0.8L17,11.7c0,0-0.1,0.1-0.1,0.1c0,0,0,0.1,0.1,0.1l1.2,0.1c-0.1,0.3,0,0.6,0.2,0.9
					c0.1,0.1,0.3,0.2,0.5,0.2c0.1,0,0.3,0,0.5-0.1c0.1,0,0.3-0.3,0.4-0.5c0.3,0.3,0.7,0.3,1,0.2c0,0,0,0,0,0
					c0.4-0.2,0.6-0.5,0.6-0.8c0-0.2-0.1-0.4-0.2-0.6C21.5,11.1,21.6,10.6,21.6,10.5z"/>
				<path class="st4" d="M20.9,11.2C20.9,11.2,20.8,11.2,20.9,11.2c-0.1,0.1-0.1,0.1,0,0.2c0,0,0.3,0.2,0.3,0.5
					c0,0.2-0.2,0.4-0.5,0.6c-0.1,0-0.7,0.2-0.9-0.3c0,0-0.1-0.1-0.1-0.1c0,0-0.1,0.1-0.1,0.1c0,0.1-0.3,0.5-0.4,0.5
					c-0.3,0.1-0.6,0.1-0.7,0c-0.2-0.2-0.2-0.5-0.1-0.8c0,0,0-0.1,0-0.1c0,0,0,0-0.1,0l-1-0.1l1-0.5c0,0,0.1,0,0.1-0.1
					c0,0,0-0.1-0.1-0.1c0,0-0.6-0.3-0.7-0.7c-0.1-0.3,0.1-0.7,0.4-1c0.1,0,0.7-0.3,1,0.2c0,0,0.1,0,0.1,0c0,0,0.1,0,0.1-0.1
					c0,0,0-0.3,0.3-0.5c0.1-0.1,0.3-0.1,0.5,0c0.1,0.1,0.5,0.4,0.3,0.8c0,0,0,0.1,0,0.1c0,0,0.1,0,0.1,0c0,0,0.5-0.2,0.8,0
					c0.1,0.1,0.2,0.3,0.2,0.6C21.4,10.5,21.3,11.1,20.9,11.2z"/>
			</g>
			<path class="st0" d="M10.4,8.7c-0.5-0.1-0.9,0-1.2,0.2L8.8,8.5L9,9C8.8,9.1,8.7,9.2,8.6,9.3L8.2,8.9l0.2,0.5
				C8.4,9.6,8.3,9.8,8.3,9.9L7.7,9.5l0.5,0.6c0,0.1,0,0.3,0,0.4l-0.8-0.1l0.8,0.3c0.1,1,0.9,1.3,0.9,1.3c1,0.4,1.9,0.1,1.9,0.1
				C10.4,11.8,10.4,8.7,10.4,8.7z"/>
			<path class="st1" d="M9.1,11.8c0,0-0.8-0.4-0.6-1.5c0,0,0.3-1.2,1.6-1c0,0,0.1,2.4,0.5,2.7C10.6,11.9,9.8,12.1,9.1,11.8z"/>
			<path class="st0" d="M9.7,10.5c-0.2,0-0.4,0.2-0.4,0.4c0,0.2,0.2,0.4,0.4,0.4c0.2,0,0.4-0.2,0.4-0.4C10.1,10.6,9.9,10.5,9.7,10.5
				z"/>
			<path class="st5" d="M7.4,15.8c0,0.1,0,0.3,0,0.4c0,0.1,0.1,0.3,0.2,0.4c0.3,0.2,0.7,0.3,1.1,0.2c0.3,0,0.7-0.2,0.8-0.5
				c-0.4,0.3-0.8,0.4-1.3,0.3C7.8,16.6,7.5,16.2,7.4,15.8z"/>
		</g>
	</g>
	<g>
		<g>
			<path class="st0" d="M59.4,17.9c-0.2-0.2-0.4-0.2-0.7-0.2c-0.8,0.1-1.5,0.2-2.1,0.2c-0.1,0-0.2,0-0.4,0c0.2-0.1,0.3-0.3,0.5-0.4
				c0.3-0.2,0.4-0.5,0.3-0.8c0-0.3-0.3-0.6-0.6-0.7l-0.5-0.2c0.7,0,1.6,0,2.7,0.1c0.2,0,0.5-0.1,0.7-0.2c0.2-0.2,0.3-0.4,0.3-0.6
				l0-1.9c0-0.5-0.4-0.9-0.8-0.9c-0.7,0-1.4-0.1-2.3-0.1c-1,0-1.9,0-2.8,0.1c0-0.1-0.1-0.3-0.2-0.4c-0.2-0.2-0.4-0.3-0.6-0.3l-2-0.2
				c-0.5,0-0.9,0.3-1,0.8c-0.1,1-0.2,1.9-0.3,2.8c-0.1-0.1-0.3-0.2-0.5-0.3c0,0-0.1,0-0.1,0c0.1-0.2,0.2-0.3,0.3-0.5
				c0.1-0.1,0.1-0.3,0.1-0.4l0-1.7c0-0.5-0.4-0.9-0.9-0.9L44,11c-0.3,0-0.5,0.1-0.7,0.3c-0.2-0.3-0.4-0.5-0.8-0.5l-1.8,0
				c-0.4,0-0.8,0.3-0.9,0.7l-0.8,0c-0.5,0-0.9,0.4-0.9,0.9l0,0.4c0,0,0,0,0,0L37,11.3c-0.2-0.3-0.5-0.4-0.9-0.3
				c-1.9,0.4-4.3,0.6-7.2,0.6c-0.3,0-0.6,0.2-0.8,0.4c-0.2,0.3-0.2,0.6-0.1,0.9l0.5,1.1c-0.2,0.2-0.4,0.4-0.4,0.8l0,1.5
				c-0.3,0.1-0.6,0.5-0.6,0.8l0,1.7c0,0.5,0.4,0.9,0.9,0.9l1,0c0,0.1,0,0.3,0,0.4l0.5,1.7c0.1,0.4,0.5,0.6,0.9,0.6l1.7,0
				c1,0,1.6-0.2,2-0.5c0.5-0.4,0.7-1.1,0.7-2.1v-0.1l2.8,0l0,0.7c0,0.5,0.4,0.9,0.9,0.9l0.9,0v0.3c0,0.5,0.4,0.9,0.9,0.9l1.8,0
				c0.3,0,0.5-0.1,0.7-0.3c0.1,0.1,0.3,0.2,0.5,0.2l5.2,0c0.5,0,0.8-0.3,0.9-0.8c0.1,0.3,0.5,0.5,0.8,0.5c0,0,0,0,0,0l2-0.1
				c0.3,0,0.5-0.1,0.6-0.3c0.1-0.2,0.2-0.4,0.2-0.6c0.7,0.4,1.6,0.6,3,0.6c0.8,0,1.6-0.1,2.5-0.2c0.5-0.1,0.8-0.5,0.8-0.9l-0.1-1.9
				C59.7,18.3,59.6,18.1,59.4,17.9z"/>
			<path class="st0" d="M112.2,14c-0.6,0-1.1,0.1-1.6,0.4c-0.4-0.3-0.9-0.4-1.4-0.4c-0.4,0-0.8,0.1-1.1,0.2
				c-0.1-0.1-0.3-0.1-0.5-0.1l-1.8,0c-0.5,0-0.9,0.4-0.9,0.9l0,0.9c-0.2-0.3-0.4-0.6-0.6-0.9c-0.7-0.7-1.7-1.1-2.8-1.1
				c-1.2,0-2.1,0.4-2.8,1.1c-0.2,0.2-0.4,0.5-0.5,0.7c-0.4-0.9-1.4-1.8-3.3-1.8c-1.2,0-2.1,0.4-2.8,1c-0.7,0.7-1.1,1.7-1.1,3
				c0,0.2,0,0.4,0,0.6c-0.4-0.5-1-0.9-1.7-0.9c-1.1,0-2.1,0.9-2.1,2.1c0,0.1,0,0.2,0,0.2l-0.5-0.5c0.4-0.8,0.6-1.7,0.6-2.8
				c0-1.6-0.4-2.9-1.2-3.8c-0.9-1-2.1-1.6-3.6-1.6c-1.5,0-2.7,0.5-3.6,1.5c-0.5,0.6-0.9,1.3-1.1,2.1c0-0.1,0-0.2,0-0.3
				c0-2-1.3-3.2-3.6-3.2l-4,0c-0.5,0-0.9,0.4-0.9,0.9l0,1.9c-0.2-1.8-1.4-2.8-3.6-2.8l-4,0c-0.5,0-0.9,0.4-0.9,0.9l0,8.8
				c0,0.5,0.4,0.9,0.9,0.9l4.2,0c1.7,0,2.8-0.6,3.4-1.7l0,0.8c0,0.5,0.4,0.9,0.9,0.9l4.2,0c2.1,0,3.4-0.9,3.7-2.6
				c0.2,0.4,0.4,0.8,0.7,1.2c0.9,1,2.1,1.6,3.6,1.6c0.6,0,1.2-0.1,1.7-0.3l0.7,0.6c0.2,0.2,0.4,0.3,0.6,0.3c0.2,0,0.4-0.1,0.6-0.2
				l1.3-1.1c0.2-0.1,0.3-0.3,0.3-0.5c0.4,0.5,1,0.9,1.7,0.9c1.1,0,1.9-0.8,2.1-1.8c0.2,0.4,0.4,0.7,0.7,1c0.7,0.7,1.7,1.1,2.8,1.1
				c1.6,0,2.8-0.6,3.4-1.8c0.2,0.3,0.3,0.5,0.5,0.7c0.7,0.7,1.7,1.1,2.8,1.1c1.2,0,2.1-0.4,2.8-1.1c0.3-0.3,0.5-0.5,0.6-0.9l0,0.9
				c0,0.5,0.4,0.9,0.9,0.9l1.8,0c0.3,0,0.5-0.1,0.7-0.3c0.2,0.2,0.4,0.3,0.7,0.3l1.9,0c0.3,0,0.5-0.1,0.7-0.3
				c0.2,0.2,0.4,0.3,0.7,0.3l1.9,0c0.5,0,0.9-0.4,0.9-0.9l0-4.4C114.8,15.1,113.8,14,112.2,14z"/>
		</g>
		<g>
			<path class="st6" d="M38.2,18.6l-3.9,0l0,1c0,0.8-0.1,1.3-0.4,1.5c-0.2,0.2-0.7,0.3-1.4,0.3l-1.7,0l-0.5-1.7l1.6,0
				c0.2,0,0.3,0,0.4-0.1c0.1-0.1,0.1-0.2,0.1-0.4l0-0.5l-4,0l0-1.7l4,0l0-0.7l-3.4,0l0-1.6l3.4,0l0-0.6c-0.9,0.1-1.8,0.1-2.8,0.1
				l-0.8-1.7c3,0,5.5-0.2,7.4-0.6l1.2,1.6c-1,0.2-2,0.3-3.1,0.4l0,0.8l3.3,0l0,1.6l-3.3,0l0,0.7l3.9,0L38.2,18.6z"/>
			<path class="st6" d="M49.1,15.5l-0.8,1.6c-0.7-0.2-1.4-0.5-1.9-0.9c-0.3,0.2-0.6,0.4-0.9,0.5l1.7,0l0,0.7l1.5,0l0,1.6l-1.5,0
				l0,0.7l1.7,0l0,1.6l-5.2,0l0-1l-1.2,0l0,1.2l-1.8,0l0-1.2l-1.8,0l0-1.5l1.8,0l0-0.3l-1.5,0l0-4.1l1.5,0v-0.4l-1.7,0l0-1.5l1.7,0
				l0-0.7l1.8,0l0,0.7l1.4,0l0-0.6l4.7,0l0,1.7c-0.3,0.5-0.6,1-1,1.4C48.1,15.3,48.6,15.4,49.1,15.5z M41,15.8v-0.4l-0.4,0l0,0.4H41
				z M41,17.2v-0.4l-0.4,0v0.4L41,17.2z M42.7,15.9v-0.4h-0.4v0.4H42.7z M42.7,17.2l0-0.4h-0.4v0.4L42.7,17.2z M45.1,15.1
				c-0.4-0.4-0.7-0.8-0.9-1.3l0.8-0.4l-0.9,0l0,0.5l-1.5,0l0,0.4l1.4,0l0,1.3C44.4,15.4,44.7,15.3,45.1,15.1z M44,16.1l0,2.3l-1.4,0
				l0,0.3l1.6,0l0-1.3l1.4,0l0-0.6c-0.3,0.1-0.6,0.3-0.9,0.4L44,16.1z M44.1,19l0,0.7l1.4,0l0-0.7L44.1,19z M45.7,13.5
				c0.2,0.3,0.4,0.5,0.7,0.8c0.3-0.2,0.5-0.5,0.6-0.8L45.7,13.5z"/>
			<path class="st6" d="M52.9,12.3c-0.3,2.1-0.4,3.9-0.4,5.5c0,1.2,0,2.2,0.2,3.1l-2,0.1c-0.1-1-0.1-2-0.1-3.1
				c0-1.8,0.1-3.8,0.4-5.9L52.9,12.3z M58.9,20.5c-0.8,0.1-1.6,0.2-2.4,0.2c-2.4,0-3.6-0.7-3.6-2.1c0-0.8,0.5-1.6,1.5-2.5l1.7,0.7
				c-0.4,0.3-0.6,0.5-0.9,0.8c-0.2,0.3-0.4,0.5-0.4,0.7c0,0.2,0.1,0.3,0.4,0.4c0.2,0.1,0.7,0.1,1.3,0.1c0.6,0,1.3-0.1,2.2-0.2
				L58.9,20.5z M58.8,13l0,1.9c-1.2-0.1-2.1-0.1-2.8-0.1c-0.9,0-1.8,0-2.6,0.1l0-1.9c1-0.1,2.1-0.1,3.2-0.1C57.4,13,58.1,13,58.8,13
				z"/>
			<path class="st2" d="M68.5,18.4c0,1.8-1,2.7-2.9,2.7l-4.2,0l0-8.8l4,0c1.8,0,2.7,0.8,2.7,2.3c0,0.4-0.1,0.7-0.3,1.1
				c-0.2,0.3-0.5,0.6-0.7,0.7C68.1,16.8,68.5,17.4,68.5,18.4z M66.1,14.9c0-0.6-0.4-0.8-1.1-0.8l-1.7,0l0,1.7l1.6,0
				c0.4,0,0.6-0.1,0.8-0.3C66.1,15.3,66.1,15.1,66.1,14.9z M66.5,18.3c0-0.6-0.4-0.9-1.3-0.9l-1.8,0l0,2l1.8,0
				C66.1,19.3,66.5,19,66.5,18.3z"/>
			<path class="st2" d="M77,18.4c0,1.8-1,2.7-3,2.7l-4.2,0l0-8.8l4,0c1.8,0,2.7,0.8,2.7,2.3c0,0.4-0.1,0.7-0.3,1.1
				c-0.2,0.3-0.5,0.6-0.7,0.7C76.6,16.8,77,17.4,77,18.4z M74.6,14.9c0-0.6-0.4-0.8-1.1-0.8l-1.7,0l0,1.7l1.6,0
				c0.4,0,0.6-0.1,0.8-0.3C74.6,15.4,74.6,15.1,74.6,14.9z M75,18.3c0-0.6-0.4-0.9-1.3-0.9l-1.8,0l0,2l1.8,0
				C74.5,19.4,75,19,75,18.3z"/>
			<path class="st2" d="M86.4,20.8l-1.3,1.1L84,20.8c-0.5,0.3-1.2,0.4-1.9,0.4c-1.2,0-2.2-0.4-2.9-1.2c-0.7-0.8-1-1.9-1-3.3
				c0-1.4,0.4-2.5,1-3.3c0.7-0.8,1.7-1.2,2.9-1.2c1.2,0,2.2,0.4,2.9,1.2c0.7,0.8,1,1.9,1,3.3c0,1.2-0.3,2.2-0.8,3L86.4,20.8z
				 M84,16.7c0-1.8-0.6-2.7-1.9-2.8c-1.3,0-1.9,0.9-1.9,2.7c0,1.8,0.6,2.8,1.9,2.8c0.2,0,0.3,0,0.5-0.1l-1.1-1.1l1.2-1l1,1
				C83.9,17.9,84,17.4,84,16.7z"/>
			<path class="st6" d="M97.4,19.3c-0.3,1.3-1.3,2-2.8,2c-0.9,0-1.7-0.3-2.2-0.8c-0.6-0.6-0.8-1.4-0.8-2.4c0-1,0.3-1.8,0.9-2.4
				c0.5-0.5,1.3-0.8,2.2-0.8c1.6,0,2.5,0.7,2.8,2l-1.8,0.5c-0.1-0.6-0.4-0.9-1-0.9c-0.8,0-1.2,0.5-1.2,1.6c0,1,0.4,1.6,1.1,1.6
				c0.5,0,0.9-0.3,1.1-0.9L97.4,19.3z"/>
			<path class="st6" d="M104.4,18.1c0,1.1-0.3,1.9-0.9,2.4c-0.5,0.5-1.3,0.8-2.2,0.8s-1.7-0.3-2.2-0.8c-0.6-0.6-0.8-1.4-0.8-2.4
				c0-1,0.3-1.8,0.8-2.4c0.5-0.5,1.3-0.8,2.2-0.8c0.9,0,1.7,0.3,2.2,0.8C104.1,16.2,104.4,17,104.4,18.1z M102.5,18.1
				c0-1.1-0.4-1.6-1.1-1.6c-0.8,0-1.1,0.5-1.2,1.6c0,1.1,0.4,1.6,1.1,1.6C102.1,19.6,102.5,19.1,102.5,18.1z"/>
			<path class="st6" d="M113.9,21.2l-1.8,0l0-3.8c0-0.3,0-0.5-0.1-0.6c-0.1-0.1-0.2-0.2-0.4-0.2c-0.2,0-0.3,0.1-0.5,0.2
				c-0.2,0.1-0.3,0.3-0.3,0.4l0,4l-1.9,0l0-3.8c0-0.3,0-0.5-0.1-0.6c-0.1-0.1-0.2-0.2-0.4-0.2c-0.2,0-0.3,0.1-0.5,0.2
				c-0.2,0.1-0.3,0.3-0.3,0.4l0,4l-1.8,0l0-6.2l1.8,0l0,0.7c0.4-0.5,1-0.8,1.6-0.8c0.6,0,1,0.3,1.3,0.8c0.5-0.5,1.1-0.8,1.7-0.8
				c1.2,0,1.7,0.7,1.7,2L113.9,21.2z"/>
			<path class="st6" d="M90.1,19.8c0,0.6-0.5,1.2-1.2,1.2c-0.6,0-1.2-0.5-1.2-1.2c0-0.6,0.5-1.2,1.2-1.2
				C89.6,18.7,90.1,19.2,90.1,19.8z"/>
		</g>
	</g>
	<g>
		<g>
			<path class="st2" d="M30.1,4.8V5h0.7v1.9h-0.7v0.3h0.8v0.5h-0.8v0.6h-0.6V7.8h-0.8V7.2h0.8V6.9h-0.7V5h0.7V4.8h-0.8V4.3h0.8V3.9
				h0.6v0.3h0.8v0.5H30.1z M30.2,5.5h-0.9v0.3h0.9V5.5z M30.2,6.2h-0.9v0.3h0.9V6.2z M32.9,5.4c-0.5-0.2-0.9-0.8-0.9-0.9
				c-0.1,0.2-0.5,0.7-0.9,0.9l-0.2-0.6c0.5-0.2,0.8-0.7,0.8-0.9h0.6c0.1,0.1,0.4,0.6,0.9,0.8L32.9,5.4z M32.3,7.2v1.2h-0.6V7.2h-0.8
				V6.6h0.8V6.1H31V5.5H33v0.6h-0.7v0.6h0.8v0.6H32.3z"/>
			<path class="st2" d="M37.8,7v0.9h-0.6V7.6h-1v0.2c0,0.5-0.1,0.7-1.1,0.7l-0.3-0.6c0.7,0,0.7,0,0.7-0.2V7.6h-1.6V7.2h1.7V7h-1.9
				V6.5h1.9V6.3h-1.7V5.9h1.7V5.7h-1.5V4.8h1.5V4.6h-1.8V4.1h1.8V3.9h0.7v0.2H38v0.5h-1.8v0.2h1.6v0.9h-1.6v0.2h1.6v0.6h0.3V7H37.8z
				 M35.5,5.2h-0.8v0.2h0.8V5.2z M37.1,5.2h-0.9v0.2h0.9V5.2z M37.2,6.3h-1v0.2h1V6.3z M37.2,7h-1v0.2h1V7z"/>
			<path class="st2" d="M41.8,5.4c0.2,0.5,0.4,1,0.6,1.4l-0.6,0.2c-0.5-0.3-0.9-0.4-1.4-0.4c-0.4,0-0.9,0.1-0.9,0.5
				c0,0.4,0.5,0.6,1.4,0.6c0.5,0,1-0.1,1.4-0.1l0.1,0.6c-0.5,0.1-1,0.1-1.4,0.1c-1.4,0-2-0.5-2-1.2c0-0.7,0.6-1.1,1.5-1.1
				c0.3,0,0.8,0.1,1.2,0.2c-0.1-0.2-0.3-0.5-0.4-0.8c-0.7,0-1.3,0-1.9,0c-0.2,0-0.3,0-0.5,0l0-0.6c0.3,0,0.7,0,1,0
				c0.4,0,0.8,0,1.2,0c-0.1-0.2-0.2-0.5-0.3-0.7L41.4,4c0.1,0.2,0.2,0.5,0.2,0.8c0.4,0,0.8-0.1,1.2-0.1l0,0.6
				C42.6,5.3,42.2,5.4,41.8,5.4z"/>
			<path class="st2" d="M46.3,8.3c-0.6,0-0.8-0.4-0.8-1c0-0.7,0-0.9-0.2-0.9c-0.2,0-0.6,0.3-1,1c-0.1,0.3-0.2,0.6-0.3,0.9l-0.7-0.2
				c0.4-1.4,1-3,1.5-4.1l0.7,0.1c-0.3,0.6-0.6,1.3-0.8,2C45,6,45.3,5.8,45.5,5.8c0.4,0,0.6,0.2,0.6,1c0,0.6,0,0.8,0.2,0.8
				c0.3,0,0.8-0.6,1.1-1.1l0.4,0.7C47.6,7.6,47,8.3,46.3,8.3z"/>
			<path class="st2" d="M50.3,8.3c-0.5,0-0.8,0-1.2-0.1l0-0.6c0.3,0,0.6,0.1,1,0.1c0.8,0,1.6-0.2,1.6-0.9c0-0.3-0.3-0.6-0.9-0.6
				c-0.7,0-1.3,0.3-1.7,0.6l-0.6-0.1l0.3-2.4l0.7,0l-0.2,1.7c0.4-0.2,1-0.5,1.7-0.5c1,0,1.5,0.5,1.5,1.2C52.4,8,51.2,8.3,50.3,8.3z
				 M51.7,5.1c-0.7-0.2-1.5-0.4-2.1-0.4L49.7,4c0.7,0.1,1.5,0.2,2.2,0.4L51.7,5.1z"/>
			<path class="st2" d="M54.2,5.9C54.1,6,54,6.1,54,6.2c0,0.1,0.1,0.2,0.2,0.2c0.5,0.4,1.3,1,2.2,1.6l-0.6,0.4
				c-0.8-0.6-1.7-1.3-2.3-1.7c-0.2-0.1-0.3-0.3-0.3-0.6c0-0.2,0.2-0.5,0.5-0.7c0.6-0.4,1.8-1.1,2.4-1.5l0.5,0.5
				C55.8,4.9,54.8,5.5,54.2,5.9z"/>
			<path class="st2" d="M59,8.3c-0.5,0-0.8,0-1.2-0.1l0-0.6c0.3,0,0.6,0.1,1,0.1c0.8,0,1.6-0.2,1.6-0.9c0-0.3-0.3-0.6-0.9-0.6
				c-0.7,0-1.3,0.3-1.7,0.6l-0.6-0.1l0.3-2.4l0.7,0l-0.2,1.7c0.4-0.2,1-0.5,1.7-0.5c1,0,1.5,0.5,1.5,1.2C61.2,8,60,8.3,59,8.3z
				 M60.5,5.1c-0.7-0.2-1.5-0.4-2.1-0.4L58.5,4c0.7,0.1,1.5,0.2,2.2,0.4L60.5,5.1z"/>
			<path class="st2" d="M63,5.9c-0.1,0.1-0.2,0.2-0.2,0.3c0,0.1,0.1,0.2,0.2,0.2c0.5,0.4,1.3,1,2.2,1.6l-0.6,0.4
				c-0.8-0.6-1.7-1.3-2.3-1.7C62.2,6.6,62,6.4,62,6.2c0-0.2,0.2-0.5,0.5-0.7c0.6-0.4,1.8-1.1,2.4-1.5l0.5,0.5
				C64.6,4.9,63.5,5.5,63,5.9z"/>
			<path class="st2" d="M68.4,7v0.3c0,0,0,0.1,0,0.1c0,0.9,0,1-1.3,1l-0.2-0.6h0.6c0.3,0,0.4,0,0.4-0.3V7h-2V6.4h2V5.9h-1.7V5.3h1.7
				V4.8c-0.4,0-0.9,0-1.5,0l-0.2-0.6c2.3,0,3.5-0.3,3.5-0.3L70,4.5c0,0-0.7,0.1-1.5,0.2v0.6H70v0.6h-1.6v0.5h1.9V7H68.4z"/>
			<path class="st2" d="M71.3,8.1l-0.6-0.2c0.3-0.7,0.5-1.7,0.6-2.5l0.7,0.1C71.8,6.3,71.6,7.3,71.3,8.1z M74.4,5.2
				c-0.1-0.2-0.1-0.3-0.2-0.5c0,0-1,1-1,1C73.7,6.1,74,6.6,74,7.2c0,0.7-0.6,1.2-1.2,1.2c-0.6,0-0.9-0.3-1.2-0.6L72,7.2
				c0.2,0.3,0.5,0.5,0.8,0.5c0.4,0,0.6-0.2,0.6-0.6c0-0.5-0.4-0.9-1-1.3l1-1.1l-1.7,0l0-0.6l2.6,0l0,0.3l0.2-0.1
				c0.1,0.2,0.3,0.5,0.4,0.7L74.4,5.2z M74.7,7.9c-0.1-0.8-0.4-1.8-0.6-2.5l0.6-0.1C75,6,75.2,7.1,75.4,7.8L74.7,7.9z M75,5
				c-0.1-0.3-0.2-0.5-0.4-0.7L75,4.2c0.1,0.2,0.3,0.5,0.4,0.7L75,5z"/>
			<path class="st2" d="M77.7,8.3c-0.5,0-0.8,0-1.2-0.1l0-0.6c0.3,0,0.6,0.1,1,0.1c0.8,0,1.6-0.2,1.6-0.9c0-0.3-0.3-0.6-0.9-0.6
				c-0.7,0-1.3,0.3-1.7,0.6l-0.6-0.1l0.3-2.4l0.7,0l-0.2,1.7c0.4-0.2,1-0.5,1.7-0.5c1,0,1.5,0.5,1.5,1.2C79.8,8,78.6,8.3,77.7,8.3z
				 M79.2,5.1c-0.7-0.2-1.5-0.4-2.1-0.4L77.2,4c0.7,0.1,1.5,0.2,2.2,0.4L79.2,5.1z"/>
			<path class="st2" d="M83.7,5c-0.7,0.4-1.2,0.8-1.5,1.2c-0.2,0.2-0.3,0.5-0.3,0.6c0,0.5,0.6,0.7,1.8,0.9l-0.2,0.6
				c-1.4-0.2-2.3-0.6-2.3-1.5c0-0.7,0.8-1.5,1.4-1.9l-2.4,0.1l0-0.6l4-0.1l0,0.6C84.1,5,83.7,5,83.7,5z M83.4,6.3
				C83.3,6,83.2,5.8,83,5.6l0.4-0.1c0.1,0.2,0.3,0.5,0.3,0.7L83.4,6.3z M84,6.2c-0.1-0.3-0.2-0.5-0.4-0.7L84,5.3
				c0.1,0.2,0.3,0.5,0.4,0.7L84,6.2z"/>
			<path class="st2" d="M85.5,8.2l-0.7-0.2c0.6-1.2,0.9-2.3,1.1-3.7l0.7,0.1C86.4,5.9,86,7.2,85.5,8.2z M88.6,8.2
				c-0.5-0.9-0.9-2.2-1.2-3.8l0.7-0.1c0.2,1.3,0.5,2.5,1.2,3.7L88.6,8.2z M88.5,4.9c-0.1-0.3-0.2-0.5-0.3-0.7L88.5,4
				c0.1,0.2,0.3,0.5,0.3,0.7L88.5,4.9z M89.1,4.7c-0.1-0.3-0.2-0.5-0.4-0.7l0.4-0.1c0.1,0.2,0.3,0.5,0.4,0.7L89.1,4.7z"/>
			<path class="st2" d="M90,6.4V5.7h4.1v0.7H90z"/>
			<path class="st2" d="M98.7,7.9c-0.6-0.8-1.3-1.8-1.8-2.3c-0.1-0.1-0.2-0.2-0.4-0.2c-0.2,0-0.3,0.1-0.4,0.3
				c-0.2,0.3-0.7,1.1-0.8,1.4l-0.6-0.3c0.2-0.3,0.6-1.1,0.8-1.4c0.3-0.5,0.6-0.7,1-0.7c0.5,0,0.7,0.3,1.1,0.7
				c0.6,0.7,1.2,1.5,1.7,2.2L98.7,7.9z M97.8,5c-0.1-0.3-0.2-0.5-0.4-0.8l0.4-0.1c0.1,0.2,0.3,0.5,0.4,0.7L97.8,5z M98.4,4.9
				c-0.1-0.3-0.2-0.5-0.4-0.8L98.5,4c0.1,0.2,0.3,0.5,0.4,0.7L98.4,4.9z"/>
			<path class="st2" d="M102.4,7l0.2,1.3l-0.7,0.1l-0.2-1.3l-1.8,0.2l-0.1-0.6l1.8-0.2l-0.1-0.9L100,5.7L100,5l1.5-0.1l-0.1-0.8
				L102,4l0.1,0.9c0,0,1.6-0.2,1.6-0.2l0.1,0.6l-1.6,0.1l0.1,0.9c0,0,1.7-0.2,1.7-0.2l0.1,0.6L102.4,7z"/>
			<path class="st2" d="M104.3,8V7.4h2.1c0,0,0.3-1.8,0.3-1.8h-1.8V5h2.6L107,7.4h1V8L104.3,8z"/>
			<path class="st2" d="M108.3,6.4V5.7h4.1v0.7H108.3z"/>
			<path class="st2" d="M114.3,6.9h-0.6l-0.1-2.7h0.7L114.3,6.9z M113.6,8V7.2h0.7V8H113.6z"/>
		</g>
	</g>
</g>
</svg>
